<svg xmlns="http://www.w3.org/2000/svg" fill="none" viewBox="0 0 400 400" height="400" width="400" id="Add-Files-Media--Streamline-Brooklyn.svg"><desc>Add Files Media Streamline Illustration: https://streamlinehq.com</desc><g id="Add-Files-Media--Streamline-Brooklyn.svg"><g id="paper 1"><path id="vector" fill="#10b981" d="M246.174 187.598c-1.478 0.042 -1.842 -1.35 -1.108 -2.134 2.104 -2.246 7.73 -5.024 30.696 -18.548 10.224 -6.022 10.96 -6.404 11.982 -4.842 1.234 1.886 -0.886 2.668 -8.946 7.428 -3.17 1.872 -29.096 17.07 -32.624 18.096Z" stroke-width="1"></path><path id="vector_2" fill="#10b981" d="M254.422 124.936c2.052 -0.076 2.006 1.758 0.738 2.626 -1.484 1.018 -24.124 13.428 -29.588 16.414 -3.238 1.77 -3.74 1.85 -4.268 1.066 -0.662 -0.98 0.652 -1.936 2.052 -2.75 30.768 -17.886 29.874 -17.314 31.064 -17.36l0.002 0.004Z" stroke-width="1"></path><path id="vector_3" fill="#10b981" d="M227.296 151.732c-1.478 0.082 -1.676 -1.264 -0.862 -2.01 2.482 -2.276 18.14 -10.5 19.862 -11.49 1.068 -0.614 2.462 -0.9 3.078 0.328 0.616 1.23 0.472 1.972 -6.772 5.746 -1.482 0.772 -13.952 7.508 -15.306 7.426Z" stroke-width="1"></path><path id="vector_4" fill="#10b981" d="M269.278 180.212c1.108 0.082 1.892 1.522 0.78 2.832 -1.226 1.442 -10.51 6.352 -12.558 7.468 -0.822 0.448 -1.802 1.066 -2.504 -0.124 -0.654 -1.11 0.288 -1.764 1.026 -2.34 2.052 -1.6 11.286 -7.714 13.254 -7.838l0.002 0.002Z" stroke-width="1"></path><path id="vector_5" fill="#10b981" d="M232.55 161.254c-1.846 -0.124 -1.756 -1.714 -0.902 -2.504 1.45 -1.34 9.142 -5.358 12.024 -6.566 0.9 -0.376 1.922 -0.9 2.544 0.206 0.65 1.152 -0.25 1.882 -1.15 2.422 -3.048 1.828 -9.07 5.416 -12.516 6.442Z" stroke-width="1"></path><g id="group"><path id="vector_6" fill="#10b981" d="M212.77 139.708c3.346 -1.608 30.73 -16.336 46.424 -25.08 -0.29 -1.3 -0.62 -2.74 -1 -4.34 -18.956 10.36 -45.938 24.826 -49.364 27.04 -2.792 1.8 -2.908 1.144 7.346 19.45 1.716 3.062 10.47 18.832 19.86 34.346 0.042 0 2.94 0.02 4.26 0.02a4.298 4.298 0 0 1 -0.114 -0.184c-31.214 -54.094 -29.546 -50.228 -27.412 -51.252Z" stroke-width="1"></path><path id="vector_7" fill="#10b981" d="M284.252 125.466c-1.324 0.32 -2.698 0.644 -4.084 0.954a1364.12 1364.12 0 0 1 18.572 32.944c9.976 18.26 12.96 24.074 15.636 28.766 0.816 1.434 -10.7 6.604 -47.232 27.666l-0.018 5.03c12.366 -6.584 40.266 -21.63 51.188 -29.29 4.286 -3.004 -6.428 -15.62 -34.064 -66.072l0.002 0.002Z" stroke-width="1"></path></g></g><g id="paper 3"><path id="vector_8" fill="#10b981" d="M119.382 260.142a16.952 16.952 0 0 1 3.458 -2.176c-13.134 -26.334 -12.204 -23.864 -10.488 -24.57 4.222 -1.736 45.596 -21.124 56.508 -26.674a2.5 2.5 0 0 1 3.364 1.108c1.854 3.778 5.278 10.284 10.384 20.47l1.648 0.05 -0.062 -6.086a1944.378 1944.378 0 0 1 -8.85 -18.58c-0.406 -0.864 -0.656 -1.396 -0.862 -1.642 -0.124 -1.19 -3.034 -1.186 -4.31 -0.576 -17.778 8.52 -57.364 26.888 -61.638 29.342 -2.87 1.648 -2.994 0.984 6.196 19.822 0.628 1.29 2.308 4.762 4.65 9.51l0.002 0.002Z" stroke-width="1"></path><path id="vector_9" fill="#10b981" d="M154.744 221.002c2.052 0.056 1.888 1.848 0.574 2.668 -1.518 0.946 -24.876 11.966 -30.49 14.65 -3.328 1.59 -3.854 1.64 -4.308 0.82 -0.57 -1.028 0.738 -1.888 2.216 -2.626 31.8 -15.89 30.818 -15.544 32.008 -15.512Z" stroke-width="1"></path><path id="vector_10" fill="#10b981" d="M126.1 246.2c-1.478 0 -1.606 -1.36 -0.78 -2.052 2.57 -2.152 18.71 -9.444 20.478 -10.3 1.106 -0.536 2.544 -0.738 3.036 0.492s0.332 1.928 -7.1 5.334c-1.486 0.68 -14.28 6.69 -15.636 6.524l0.002 0.002Z" stroke-width="1"></path><path id="vector_11" fill="#10b981" d="M130.818 256.008c-1.846 -0.246 -1.638 -1.842 -0.738 -2.586 1.526 -1.264 9.44 -4.798 12.394 -5.868 0.904 -0.328 1.978 -0.784 2.544 0.37 0.582 1.186 -0.37 1.846 -1.272 2.38 -3.242 1.642 -9.438 4.842 -12.926 5.704h-0.002Z" stroke-width="1"></path></g><g id="paper 2"><path id="vector_12" fill="#10b981" d="M263.162 197.858c0.41 -1.148 -2.216 -2.4 -3.652 -2.42 -19.696 -0.322 -63.362 -0.676 -68.286 -0.328 -3.284 0.232 -3.136 -0.41 -3.036 20.56 0.008 1.626 0.012 6.374 0.082 12.804 1.352 0.04 2.774 0.08 4.27 0.118 -0.3 -32.362 -0.916 -29.56 0.984 -29.46 4.556 0.246 50.27 0.818 62.5 0.454a2.46 2.46 0 0 1 2.544 2.462c0 4.272 0.282 11.82 0.482 23.594 1.42 0.03 2.804 0.066 4.132 0.106 -0.042 -7.84 -0.044 -16.496 0.024 -26.04 0.008 -0.986 0 -1.52 -0.042 -1.848l-0.002 -0.002Z" stroke-width="1"></path><path id="vector_13" fill="#10b981" d="M237.104 206.394c1.8 0.954 0.902 2.498 -0.616 2.668 -1.766 0.198 -27.618 0 -33.856 0 -3.694 0 -4.196 -0.204 -4.268 -1.108 -0.096 -1.19 1.478 -1.382 3.118 -1.396 35.624 -0.288 34.552 -0.732 35.622 -0.164Z" stroke-width="1"></path><path id="vector_14" fill="#10b981" d="M200.376 216.694c-1.354 -0.616 -0.86 -1.918 0.206 -2.174 3.25 -0.786 20.928 -0.39 22.94 -0.41 1.232 -0.012 2.586 0.41 2.544 1.764 -0.042 1.354 -0.532 1.946 -8.7 1.724 -1.682 -0.046 -15.84 -0.208 -16.99 -0.904Z" stroke-width="1"></path><path id="vector_15" fill="#10b981" d="M200.376 227.528c-1.56 -1.026 -0.692 -2.358 0.452 -2.626 1.938 -0.454 10.586 -0.192 13.706 0.082 0.984 0.086 2.134 0.124 2.134 1.436 0 1.312 -1.148 1.522 -2.174 1.56 -3.61 0.134 -10.63 0.328 -14.118 -0.452Z" stroke-width="1"></path></g><path id="picture 3" fill="#10b981" d="M170.454 254.23c1.284 -1.382 3.34 -2.412 5.71 -3.516 2.462 -1.148 4.616 -0.678 6.524 1.272 0.528 0.54 0.416 0.868 -0.042 1.314l-0.842 0.826c1.592 -0.024 3.22 -0.05 4.884 -0.082a435.7 435.7 0 0 1 3.304 -3.042c2.046 -1.852 3.038 -0.946 5.458 0.41 1.192 0.668 1.792 1.274 2.06 2.36 1.14 -0.036 2.294 -0.074 3.464 -0.116 -0.008 -4.436 0.078 -10.152 0.466 -17.51 0.13 -2.462 -0.738 -3.28 -3.202 -3.324 -19.288 -0.344 -25.238 -0.456 -29.136 -0.328 -4.214 0.138 -2.444 0.444 -3.228 21.756l4.574 -0.02h0.006Zm6.08 -15.416c5.13 -0.02 4.842 7.428 0 7.386 -4.76 -0.042 -4.966 -7.366 0 -7.386Z" stroke-width="1"></path><path id="picture 2" fill="#10b981" d="M164.468 136.18c-19.288 -0.346 -25.236 -0.476 -29.136 -0.328 -4.842 0.184 -1.784 0.538 -3.776 32.748 -0.12 1.928 0.322 2.678 3.572 2.944s20.392 0.52 29.298 0.46c4.842 -0.03 1.722 -3.688 3.242 -32.5 0.13 -2.46 -0.738 -3.28 -3.202 -3.322l0.002 -0.002ZM142.76 142.172c5.13 -0.042 4.842 7.428 0 7.386 -4.76 -0.042 -4.966 -7.346 0 -7.386Zm-7.222 20.846c-1.272 -4.882 2.184 -6.75 6.854 -8.906 2.468 -1.14 4.638 -0.7 6.524 1.272 0.534 0.492 0.416 0.826 -0.042 1.272 -14.048 13.74 -13.336 14.2 -13.336 6.36Zm28.028 4.226c-0.028 0.74 -0.164 1.26 -1.068 1.19 -6.642 -0.528 -13.296 -0.124 -20.396 -0.41 2.626 -3.16 13.212 -12.846 14.118 -13.666 2.046 -1.852 3.028 -0.972 5.458 0.41 2.986 1.7 2.254 2.96 1.888 12.476Z" stroke-width="1"></path><g id="folder"><path id="vector_16" fill="#031d40" d="M257.294 360.2c-0.206 -12.27 0.78 -11.902 -4.392 -11.696l-36.728 1.314c-3.118 0.124 -2.298 0.904 -2.544 10.876 -0.082 3.366 -0.288 2.832 20.6 2.544 23.35 -0.328 23.104 0.246 23.062 -3.036l0.002 -0.002Zm-22.036 0c-19.574 0.452 -19.41 1.19 -19.246 -0.944 0.37 -5.868 -0.82 -6.812 1.436 -6.854 0.042 0 31.68 -0.738 35.826 -1.066 1.682 -0.124 1.068 0.082 1.518 7.592 0.124 1.928 0.042 0.78 -19.534 1.272Z" stroke-width="1"></path><path id="vector_17" fill="#031d40" d="M286.308 294.706c-0.37 -58.682 -0.986 -63.772 -12.27 -64.428 -7.182 -0.41 -36.604 -1.6 -44.032 0.902 -10.752 3.612 -1.806 25.156 -8.7 25.566 -113.304 6.77 -104.726 -17.482 -108.214 66.562a257.128 257.128 0 0 0 -0.154 11.2 31.26 31.26 0 0 1 4.264 -1.584c-0.228 -23.378 1.168 -48.416 1.964 -53.236 0.82 -4.884 0.534 -13.5 14.034 -16.086 14.24 -2.708 28.11 -0.658 49.04 -1.518 39.068 -1.642 46.782 1.888 46.66 -7.592 -0.164 -15.758 -1.066 -18.918 4.186 -19.698 9.726 -1.518 25.238 -0.902 39.642 -0.328 9.604 0.37 7.058 -0.246 9.438 81.622 0.534 19.248 1.642 56.056 -17.194 58.6 -11.038 1.5 -78.2 4.432 -116.178 3.692a28.808 28.808 0 0 1 -3.916 4.072c28.642 0.75 75.51 -1.45 102.49 -2.182 36.974 -1.026 39.478 -2.174 38.944 -85.562l-0.004 -0.002Z" stroke-width="1"></path></g><g id="cloud"><path id="vector_18" fill="#031d40" d="M213.644 95.848c-0.322 1.24 -0.674 2.574 -1.052 4.004 18.716 -0.006 32.732 -0.06 42.92 -0.224a111.44 111.44 0 0 1 -0.934 -3.714l-40.932 -0.064 -0.002 -0.002Z" stroke-width="1"></path><path id="vector_19" fill="#031d40" d="M272.108 56.446c-5.746 -4.966 -12.558 -7.756 -20.19 -8.372 -1.436 -0.124 -3.2 0.986 -4.104 0 -1.272 -1.436 -1.148 -19.822 -20.806 -24.54 -7.346 -1.764 -14.034 0.124 -20.026 4.596 -1.068 0.78 -1.56 0.74 -2.052 -0.492 -5.252 -13.296 -27.904 -19.7 -41.488 -5.828 -6.32 6.44 -5.334 10.876 -7.55 9.07 -14.938 -11.982 -51.09 0.164 -44.812 33.774 -21.258 -3.9 -34.964 16.004 -29.178 31.804 1.478 4.02 -0.124 3.28 84.864 3.364l0.778 0c0.306 -1.192 0.652 -2.504 1.028 -3.96l-67.424 0.224c-14.198 0.084 -15.8 1.272 -16.332 -1.52 -2.626 -14.116 6.936 -25.196 20.682 -25.81 7.428 -0.328 9.438 0.616 9.234 -2.3 -0.616 -8.082 -1.026 -13.294 1.108 -18.342 6.074 -14.568 22.816 -18.63 32.994 -15.47 8.29 2.584 8.782 6.074 10.792 2.216 3.406 -6.648 8.084 -16.044 21.012 -16.25 15.102 -0.246 20.396 10.38 23.022 14.28 1.56 2.258 1.97 1.192 7.674 -2.706 10.876 -7.428 29.424 -2.26 31.804 20.68 0.492 4.72 3.98 -3.404 21.092 6.158 7.332 4.12 9.552 15.408 10.674 25.104 1.442 -0.34 2.976 -0.706 4.606 -1.096 -0.714 -9.684 -2.898 -20.68 -7.402 -24.582v-0.002Z" stroke-width="1"></path></g><path id="picture 1" fill="#10b981" d="M271.27 124.366c-4.902 1.154 -5.684 0.692 -6.138 -1.524 -6.486 -31.63 -9.4 -31.2 -4.802 -32.624 3.732 -1.16 9.466 -2.596 28.234 -7.182 2.378 -0.582 3.446 0 3.94 2.38 5.856 28.236 9.888 30.938 5.212 32.214 -8.538 2.33 -22.992 5.92 -26.446 6.736Zm3.876 -4.806c6.936 -1.56 13.252 -3.63 19.82 -4.842 0.902 -0.166 0.906 -0.7 0.738 -1.396 -2.218 -9.242 -1.684 -10.708 -5.048 -11.572 -2.708 -0.696 -3.864 -1.276 -5.376 1.026 -0.618 0.94 -8.37 13.008 -10.134 16.784Zm-7.592 -3.16c2.01 7.592 1.268 7.326 11.244 -9.562 0.336 -0.57 0.374 -0.868 -0.288 -1.272 -2.324 -1.42 -4.546 -1.302 -6.648 0.452 -3.962 3.304 -6.812 5.992 -4.308 10.38Zm3.53 -14.896c4.678 -1.19 3.036 -8.496 -1.928 -7.14 -4.802 1.312 -2.75 8.33 1.928 7.14Z" stroke-width="1"></path><g id="video"><path id="vector_20" fill="#10b981" d="M206.942 80.452c-23.172 -5.804 -23.802 -5.95 -27.29 -6.402 -1.354 0.164 -1.49 -0.292 -5.746 17.4 -3.828 15.92 -5.662 16.456 -0.78 17.688 30.862 7.788 30.614 8.454 31.558 4.76l7.346 -29.26c0.738 -3.08 -1.844 -3.374 -5.088 -4.186Zm0.984 5.746c0 0.04 -5.992 24.62 -5.992 24.664 -0.534 2.34 -0.268 1.4 -23.392 -4.226 -1.024 -0.25 -2.01 -0.654 -3.118 -0.7 -0.984 -0.04 -1.156 -0.616 -0.902 -1.56 6.848 -25.376 5.582 -26.22 7.264 -25.974 26.428 6.772 26.632 5.62 26.14 7.796Z" stroke-width="1"></path><path id="vector_21" fill="#10b981" d="M186.382 101.544c-4.062 0 -3.564 -0.942 -0.616 -11.368 0.986 -3.488 3.106 -2.2 13.254 5.868 4.344 3.454 -6.566 3.694 -12.64 5.498l0.002 0Z" stroke-width="1"></path></g><path id="plus 1" fill="#10b981" d="M148.916 352.854c-10.628 -31.68 -57.944 -15.266 -47.52 16.086 10.34 31.188 58.148 15.636 47.52 -16.086Zm-14.774 11.04c-3.366 0.082 -6.074 -0.412 -6.032 1.518 0.082 3.364 0.698 6.032 -1.232 6.074 -2.462 0.082 -4.842 0.574 -4.924 -1.232 -0.082 -3.366 0.41 -6.032 -1.518 -5.992 -3.366 0.082 -6.032 0.698 -6.074 -1.232 -0.082 -2.502 -0.616 -4.882 1.23 -4.924 3.366 -0.082 6.032 0.41 5.992 -1.518 -0.082 -3.366 -0.738 -6.074 1.23 -6.114 2.462 -0.082 4.842 -0.576 4.924 1.23 0.082 3.366 -0.41 6.074 1.518 6.032 3.364 -0.082 6.074 -0.738 6.114 1.232 0.082 2.462 0.574 4.842 -1.232 4.924l0.004 0.002Z" stroke-width="1"></path><path id="plus 3" fill="#10b981" d="M258.608 29.4c3.366 -0.08 6.036 0.412 5.992 -1.516 -0.076 -3.366 -0.738 -6.062 1.232 -6.114 2.462 -0.066 4.862 -0.576 4.924 1.232 0.118 3.364 -0.41 6.076 1.518 6.032 3.366 -0.076 6.062 -0.74 6.114 1.19 0.068 2.46 0.576 4.86 -1.232 4.924 -3.364 0.118 -6.076 -0.41 -6.032 1.518 0.076 3.366 0.698 6.02 -1.232 6.074 -2.462 0.068 -4.862 0.576 -4.924 -1.232 -0.118 -3.364 0.41 -6.036 -1.518 -5.992 -3.366 0.076 -6.022 0.698 -6.074 -1.19 -0.068 -2.504 -0.574 -4.882 1.232 -4.924Z" stroke-width="1"></path><path id="plus 2" fill="#10b981" d="M110.382 142.746c-0.042 -1.97 -2.75 -1.312 -6.114 -1.23 -1.928 0.042 -1.436 -2.668 -1.518 -6.032 -0.082 -1.806 -2.462 -1.314 -4.924 -1.232 -1.928 0.042 -1.272 2.75 -1.19 6.114 0.018 0.85 -0.49 1.23 -1.352 1.396 -1.094 0.21 -2.758 0.076 -4.64 0.122 -1.806 0.042 -1.314 2.42 -1.23 4.924 0.042 1.928 2.708 1.312 6.074 1.23 1.928 -0.042 1.436 2.626 1.518 5.992 0.082 1.806 2.462 1.314 4.924 1.232 1.888 -0.042 1.272 -2.708 1.19 -6.074 -0.042 -1.928 2.668 -1.436 6.032 -1.518 1.806 -0.082 1.312 -2.462 1.23 -4.924Z" stroke-width="1"></path></g></svg>