<svg viewBox="0 0 100 100" xmlns="http://www.w3.org/2000/svg" id="Celebration-Cake-1--Streamline-Ux.svg" height="100" width="100"><desc>Celebration Cake 1 Streamline Illustration: https://streamlinehq.com</desc><path d="M9.9152 49.9048C9.9152 84.1936 47.0339 105.624 76.7288 88.4797C90.5103 80.5229 99 65.8183 99 49.9048C99 15.616 61.8813 -5.8145 32.1864 11.3299C18.4049 19.2867 9.9152 33.9913 9.9152 49.9048Z" fill="#d2fae5" stroke-width="1"></path><path d="M76.2166 41.9985C77.3082 44.2037 75.6033 46.7637 73.1477 46.6065C72.0081 46.5336 70.9939 45.8582 70.4873 44.8347C69.6354 43.1143 71.6354 42.0152 72.0218 39.9295C72.1834 39.0502 73.2021 38.6346 73.9326 39.15C74.9313 39.8821 75.7191 40.8646 76.2166 41.9985Z" fill="#ffffff" stroke="#015347" stroke-linecap="round" stroke-linejoin="round" stroke-width="1"></path><path d="M74.9994 43.8415C75.5376 44.9046 74.723 46.1515 73.5333 46.086C72.9716 46.0551 72.4709 45.7218 72.2255 45.2156C71.9204 44.6009 72.367 44.1499 72.6977 43.5519C73.1499 42.7245 74.3282 42.6968 74.8187 43.5022C74.8265 43.5149 74.834 43.5278 74.8413 43.5408C74.9003 43.6388 74.9527 43.739 74.9994 43.8414Z" fill="#36efbd" stroke-width="1"></path><path d="M72.8503 62.1005L66.1477 60.5527L69.3069 46.8625C69.4499 46.2458 70.0651 45.8613 70.6822 46.0029L75.1509 47.0351C75.7678 47.177 76.1524 47.7926 76.0094 48.4093Z" fill="#ffffff" stroke-width="1"></path><path d="M66.8381 57.5605L69.7946 61.3945L72.0073 61.9056L67.2568 55.7443L66.8381 57.5605Z" fill="#015347" stroke-width="1"></path><path d="M68.0586 52.27L73.4928 59.3166L73.9115 57.5004L68.4784 50.4538L68.0586 52.27Z" fill="#015347" stroke-width="1"></path><path d="M69.3091 46.857L74.7422 53.9025L75.1609 52.0863L70.4483 45.9739" fill="#015347" stroke-width="1"></path><path d="M72.8503 62.1005L66.1477 60.5527L69.3069 46.8625C69.4499 46.2458 70.0651 45.8613 70.6822 46.0029L75.1509 47.0351C75.7678 47.177 76.1524 47.7926 76.0094 48.4093Z" fill="none" stroke="#015347" stroke-linecap="round" stroke-linejoin="round" stroke-width="1"></path><path d="M34.1529 43.9305C34.1315 46.3915 36.7822 47.9528 38.9242 46.7409C39.891 46.1939 40.5045 45.1843 40.5448 44.0742C40.5882 42.1533 38.311 42.0052 37.0771 40.2792C36.5595 39.5492 35.4593 39.6027 35.0148 40.3794C34.4204 41.4668 34.1232 42.6917 34.1529 43.9305Z" fill="#ffffff" stroke="#015347" stroke-linecap="round" stroke-linejoin="round" stroke-width="1"></path><path d="M36.0315 45.0831C36.0045 46.2746 37.2775 47.0486 38.3229 46.4762C38.8081 46.2105 39.1147 45.7062 39.1272 45.1532C39.1428 44.4673 38.5481 44.2479 37.9947 43.8459C37.2346 43.2879 36.1555 43.762 36.0523 44.6993C36.0506 44.714 36.0493 44.7287 36.0482 44.7434C36.0393 44.8559 36.0348 44.9695 36.0315 45.0831Z" fill="#36efbd" stroke-width="1"></path><path d="M44.4879 61.2876L37.7609 62.7241L34.8222 48.9839C34.6901 48.3646 35.0849 47.7555 35.7041 47.6231L40.1884 46.6654C40.8075 46.5327 41.4168 46.9272 41.5492 47.5463Z" fill="#ffffff" stroke-width="1"></path><path d="M37.115 59.7208L41.4167 61.9424L43.6382 61.468L36.7263 57.8979L37.115 59.7208Z" fill="#015347" stroke-width="1"></path><path d="M35.9814 54.4103L43.8877 58.4937L43.4979 56.6708L35.5916 52.5885L35.9814 54.4103Z" fill="#015347" stroke-width="1"></path><path d="M34.8222 48.9772L42.7262 53.0595L42.3376 51.2377L35.4792 47.6955" fill="#015347" stroke-width="1"></path><path d="M44.4879 61.2876L37.7609 62.7241L34.8222 48.9839C34.6901 48.3646 35.0849 47.7555 35.7041 47.6231L40.1884 46.6654C40.8075 46.5327 41.4168 46.9272 41.5492 47.5463Z" fill="none" stroke="#015347" stroke-linecap="round" stroke-linejoin="round" stroke-width="1"></path><path d="M53.1347 41.1923C52.5672 43.5865 54.8043 45.6972 57.1615 44.9916C58.2555 44.6641 59.0917 43.7778 59.355 42.6666C59.8004 40.7981 57.6023 40.1767 56.7571 38.2313C56.4042 37.4078 55.3154 37.2294 54.7181 37.8973C53.9097 38.8372 53.3635 39.9738 53.1347 41.1923Z" fill="#ffffff" stroke="#015347" stroke-linecap="round" stroke-linejoin="round" stroke-width="1"></path><path d="M54.7326 42.7123C54.4867 43.8791 55.596 44.8745 56.7294 44.5041C57.229 44.3409 57.6117 43.9354 57.7459 43.4272C57.904 42.7591 57.3684 42.425 56.9107 41.9117C56.2841 41.207 55.1297 41.445 54.8328 42.3399C54.8281 42.3541 54.8237 42.3684 54.8195 42.3827C54.785 42.4918 54.7571 42.601 54.7326 42.7123Z" fill="#36efbd" stroke-width="1"></path><path d="M59.6111 60.3244H52.7282V46.2735C52.7288 45.6404 53.2422 45.1276 53.8752 45.1276H58.4608C59.0937 45.1276 59.6067 45.6406 59.6067 46.2735Z" fill="#ffffff" stroke-width="1"></path><path d="M52.7327 57.2532L56.4754 60.3233H58.747L52.7327 55.3891V57.2532Z" fill="#015347" stroke-width="1"></path><path d="M52.7327 51.8223L59.6111 57.467V55.604L52.7327 49.9593V51.8223Z" fill="#015347" stroke-width="1"></path><path d="M52.7338 46.2679L59.6111 51.9114V50.0473L53.6447 45.151" fill="#015347" stroke-width="1"></path><path d="M59.6111 60.3244H52.7282V46.2735C52.7288 45.6404 53.2422 45.1276 53.8752 45.1276H58.4608C59.0937 45.1276 59.6067 45.6406 59.6067 46.2735Z" fill="none" stroke="#015347" stroke-linecap="round" stroke-linejoin="round" stroke-width="1"></path><path d="M79.6831 94.3448H30.8456C30.1618 94.3446 29.6008 93.8032 29.5762 93.1198L28.7165 63.7953C28.69 63.076 29.2662 62.4786 29.986 62.4791H80.5416C81.2614 62.4786 81.8376 63.076 81.8111 63.7953L80.9514 93.1198C80.9269 93.8028 80.3665 94.344 79.6831 94.3448Z" fill="#36efbd" stroke-width="1"></path><path d="M79.6831 94.3448H30.8456C30.1618 94.3446 29.6008 93.8032 29.5762 93.1198L28.7165 63.7953C28.69 63.076 29.2662 62.4786 29.986 62.4791H80.5416C81.2614 62.4786 81.8376 63.076 81.8111 63.7953L80.9514 93.1198C80.9269 93.8028 80.3665 94.344 79.6831 94.3448Z" fill="none" stroke="#015347" stroke-linecap="round" stroke-linejoin="round" stroke-width="1"></path><path d="M83.7464 70.136L83.2632 70.47C82.267 71.1509 80.9182 70.9744 80.1307 70.0602C79.1959 68.9762 77.521 68.9616 76.5673 70.0291L76.3947 70.2239C75.3754 71.3653 73.5577 71.2563 72.6821 70.0012C71.3453 68.0838 68.6486 67.7322 66.8649 69.2429C64.8002 70.9921 61.8748 71.2979 59.4931 70.0135L59.237 69.8754C56.5825 68.4436 53.3006 68.9433 51.1926 71.1003C50.454 71.8565 49.3039 72.0323 48.3731 71.5313L47.1482 70.872C46.3356 70.4349 45.3432 70.5092 44.6048 71.0624L43.636 71.7885C42.6989 72.4919 41.3883 72.4049 40.5525 71.5836C38.7828 69.844 35.9639 69.7849 34.1228 71.4488C32.2039 73.1822 29.3214 73.2997 27.2678 71.7283C26.107 70.8392 25.6116 69.3283 26.0206 67.9244L26.2065 67.2819C27.3845 63.245 31.0846 60.4694 35.2898 60.468H75.5384C79.8638 60.4698 83.6377 63.4035 84.7063 67.5948C84.9514 68.5594 84.568 69.5743 83.7464 70.136Z" fill="#ffffff" stroke-width="1"></path><path d="M33.987 79.8273C33.987 81.3248 35.6082 82.2608 36.9051 81.512C37.507 81.1645 37.8778 80.5223 37.8778 79.8273C37.8778 78.3297 36.2566 77.3937 34.9597 78.1425C34.3578 78.49 33.987 79.1322 33.987 79.8273Z" fill="#ffffff" stroke="#015347" stroke-linecap="round" stroke-linejoin="round" stroke-width="1"></path><path d="M43.6727 75.9376C43.6727 77.4352 45.2939 78.3711 46.5908 77.6224C47.1927 77.2749 47.5635 76.6326 47.5635 75.9376C47.5635 74.44 45.9424 73.5041 44.6454 74.2529C44.0435 74.6004 43.6727 75.2426 43.6727 75.9376Z" fill="#ffffff" stroke="#015347" stroke-linecap="round" stroke-linejoin="round" stroke-width="1"></path><path d="M49.8263 82.7303C49.8263 84.2279 51.4474 85.1639 52.7444 84.4151C53.3463 84.0676 53.7171 83.4253 53.7171 82.7303C53.7171 81.2328 52.0959 80.2968 50.799 81.0456C50.1971 81.3931 49.8263 82.0353 49.8263 82.7303Z" fill="#ffffff" stroke="#015347" stroke-linecap="round" stroke-linejoin="round" stroke-width="1"></path><path d="M61.6545 76.4933C61.6545 77.9908 63.2757 78.9268 64.5726 78.178C65.1745 77.8305 65.5453 77.1883 65.5453 76.4933C65.5453 74.9957 63.9241 74.0597 62.6272 74.8085C62.0253 75.156 61.6545 75.7982 61.6545 76.4933Z" fill="#ffffff" stroke="#015347" stroke-linecap="round" stroke-linejoin="round" stroke-width="1"></path><path d="M72.5318 79.8273C72.5318 81.3248 74.1529 82.2608 75.4499 81.512C76.0518 81.1645 76.4226 80.5223 76.4226 79.8273C76.4226 78.3297 74.8014 77.3937 73.5045 78.1425C72.9026 78.49 72.5318 79.1322 72.5318 79.8273Z" fill="#ffffff" stroke="#015347" stroke-linecap="round" stroke-linejoin="round" stroke-width="1"></path><path d="M83.7464 70.136L83.2632 70.47C82.267 71.1509 80.9182 70.9744 80.1307 70.0602H80.1307C79.1959 68.9762 77.521 68.9616 76.5673 70.0291L76.3947 70.2239C75.3754 71.3653 73.5577 71.2563 72.6821 70.0012H72.6821C71.3453 68.0838 68.6486 67.7322 66.8649 69.2429H66.8649C64.8002 70.9921 61.8748 71.2979 59.4931 70.0135L59.237 69.8754C56.5825 68.4436 53.3006 68.9433 51.1926 71.1003H51.1926C50.454 71.8565 49.3039 72.0323 48.3731 71.5313L47.1482 70.872C46.3356 70.4349 45.3432 70.5092 44.6048 71.0624L43.636 71.7885C42.6989 72.4919 41.3883 72.4049 40.5525 71.5836H40.5525C38.7828 69.844 35.9639 69.7849 34.1228 71.4488H34.1228C32.2039 73.1822 29.3214 73.2997 27.2678 71.7283H27.2678C26.107 70.8392 25.6116 69.3283 26.0206 67.9244L26.2065 67.2819C27.3845 63.245 31.0846 60.4694 35.2898 60.468H75.5384C79.8638 60.4698 83.6377 63.4035 84.7063 67.5948H84.7063C84.9514 68.5594 84.568 69.5743 83.7464 70.136Z" fill="none" stroke="#015347" stroke-linecap="round" stroke-linejoin="round" stroke-width="1"></path><path d="M35.9602 19.6159L44.9801 33.0065C45.4593 33.7172 46.5283 33.6426 46.9041 32.8722C46.9046 32.8713 46.905 32.8704 46.9054 32.8695L53.4754 19.2919" fill="#36efbd" stroke="#015347" stroke-linecap="round" stroke-linejoin="round" stroke-width="1"></path><path d="M70.4049 15.4445L82.771 25.902C83.4253 26.4558 84.4337 26.0936 84.5862 25.2501C84.5891 25.234 84.5917 25.2178 84.5939 25.2016L86.9624 7.7877" fill="#36efbd" stroke="#015347" stroke-linecap="round" stroke-linejoin="round" stroke-width="1"></path><path d="M55.9364 18.9534L64.3994 29.3774C64.9398 30.0429 65.9979 29.8739 66.3041 29.0733C66.3098 29.0582 66.3152 29.043 66.3203 29.0278L70.9082 15.2809" fill="#ffffff" stroke="#015347" stroke-linecap="round" stroke-linejoin="round" stroke-width="1"></path><path d="M18.0085 16.1338L23.9694 31.3306C24.2822 32.1287 25.3416 32.289 25.8765 31.6191C25.8774 31.6179 25.8783 31.6168 25.8792 31.6157L35.4224 19.5647" fill="#ffffff" stroke="#015347" stroke-linecap="round" stroke-linejoin="round" stroke-width="1"></path><path d="M12.944 14.4167C38.643 24.1422 67.4546 20.8802 90.3287 5.6552" fill="none" stroke="#015347" stroke-linecap="round" stroke-linejoin="round" stroke-width="1"></path><path d="M89.2007 52.0584V50.8892" fill="none" stroke="#015347" stroke-linecap="round" stroke-linejoin="round" stroke-width="1"></path><path d="M91.6817 53.0862L92.5091 52.26" fill="none" stroke="#015347" stroke-linecap="round" stroke-linejoin="round" stroke-width="1"></path><path d="M92.7095 55.5672H93.8787" fill="none" stroke="#015347" stroke-linecap="round" stroke-linejoin="round" stroke-width="1"></path><path d="M91.6817 58.0483L92.5091 58.8756" fill="none" stroke="#015347" stroke-linecap="round" stroke-linejoin="round" stroke-width="1"></path><path d="M89.2007 59.0761V60.2453" fill="none" stroke="#015347" stroke-linecap="round" stroke-linejoin="round" stroke-width="1"></path><path d="M86.7197 58.0483L85.8934 58.8756" fill="none" stroke="#015347" stroke-linecap="round" stroke-linejoin="round" stroke-width="1"></path><path d="M85.6918 55.5672H84.5226" fill="none" stroke="#015347" stroke-linecap="round" stroke-linejoin="round" stroke-width="1"></path><path d="M86.7197 53.0862L85.8934 52.26" fill="none" stroke="#015347" stroke-linecap="round" stroke-linejoin="round" stroke-width="1"></path><path d="M17.5308 58.3044V52.0673" fill="none" stroke="#015347" stroke-linecap="round" stroke-linejoin="round" stroke-width="1"></path><path d="M14.4128 55.1853H20.6499" fill="none" stroke="#015347" stroke-linecap="round" stroke-linejoin="round" stroke-width="1"></path><path d="M29.9225 33.1735V30.0556" fill="none" stroke="#015347" stroke-linecap="round" stroke-linejoin="round" stroke-width="1"></path><path d="M28.3635 31.6146H31.4815" fill="none" stroke="#015347" stroke-linecap="round" stroke-linejoin="round" stroke-width="1"></path><path d="M82.0416 33.6234V30.5043" fill="none" stroke="#015347" stroke-linecap="round" stroke-linejoin="round" stroke-width="1"></path><path d="M80.4826 32.0633H83.6017" fill="none" stroke="#015347" stroke-linecap="round" stroke-linejoin="round" stroke-width="1"></path><path d="M3.1158 47.0507V43.9317" fill="none" stroke="#015347" stroke-linecap="round" stroke-linejoin="round" stroke-width="1"></path><path d="M1.5568 45.4917H4.6747" fill="none" stroke="#015347" stroke-linecap="round" stroke-linejoin="round" stroke-width="1"></path><path d="M53.7304 32.9787C53.4638 33.478 53.8258 34.0814 54.3919 34.0811H60.6891C61.2543 34.08 61.6155 33.478 61.3505 32.9787L58.2014 27.0768C57.9283 26.5676 57.2065 26.5449 56.902 27.036C56.8937 27.0493 56.8859 27.0629 56.8784 27.0768Z" fill="none" stroke="#015347" stroke-linecap="round" stroke-linejoin="round" stroke-width="1"></path><path d="M16.8248 40.7736H18.2502C19.1111 40.7736 19.8091 41.4716 19.8091 42.3326V43.6243C19.8091 44.4853 20.5071 45.1833 21.3681 45.1833H22.6621C23.5231 45.1833 24.2211 45.8813 24.2211 46.7423V48.034C24.2211 48.895 24.919 49.593 25.78 49.593H27.0718C27.9328 49.593 28.6308 50.291 28.6308 51.152V52.4437C28.6308 53.3047 29.3287 54.0027 30.1897 54.0027H31.4815" fill="none" stroke="#015347" stroke-linecap="round" stroke-linejoin="round" stroke-width="1"></path><path d="M82.0416 46.8982L82.3289 45.5018C82.5025 44.6582 83.3272 44.1152 84.1707 44.2891L85.4357 44.5486C86.2792 44.7225 87.104 44.1795 87.2775 43.3359L87.5381 42.0709C87.7112 41.2274 88.5353 40.6839 89.3788 40.8571L90.645 41.1177C91.4884 41.2909 92.3126 40.7474 92.4857 39.9039L92.7462 38.6389C92.9229 37.798 93.7467 37.2587 94.5881 37.4329L95.8531 37.6924C96.6966 37.8663 97.5213 37.3233 97.6949 36.4797L97.9544 35.2147" fill="none" stroke="#015347" stroke-linecap="round" stroke-linejoin="round" stroke-width="1"></path></svg>