<svg viewBox="0 0 400 400" xmlns="http://www.w3.org/2000/svg" height="400" width="400" id="Businessman-Card-1--Streamline-Brooklyn.svg"><desc>Businessman Card 1 Streamline Illustration: https://streamlinehq.com</desc><path d="M137.258 341.886c9.078 5.692 3.4 16.91 -6.024 18.248 -7.298 1.034 -18.134 -7.168 -14.852 -15.362 3.018 -7.55 14.256 -7.036 20.876 -2.886Z" fill="#10b981" stroke-width="1"></path><path d="M303.088 61.826a4.98 4.98 0 0 0 -8.572 3.4 4.756 4.756 0 0 0 4.668 4.244 5.298 5.298 0 0 0 5.346 -4.414 4.678 4.678 0 0 0 -1.442 -3.23Z" fill="#10b981" stroke-width="1"></path><path d="M310.386 111.4c-0.358 -1.098 -2.318 -1.018 -2.2 0.254 0.4 4.678 0.424 11.372 5.856 12.56 8.148 1.782 18.534 -0.188 26.564 -2.036a1.54 1.54 0 0 0 1.102 -1.528c0 -5.856 0.042 -11.712 0.086 -17.568a1.57 1.57 0 0 0 -3.14 0 113.628 113.628 0 0 1 0 13.154c-0.256 2.122 0.166 2.624 -1.952 3.48a31.518 31.518 0 0 1 -7.894 1.104c-18.074 3 -16.062 -2.206 -18.422 -9.42Z" fill="#031d40" stroke-width="1"></path><path d="M321.164 80.074c1.782 0.254 4.844 -0.096 6.28 0.678 2.642 1.424 1.692 5.516 1.614 7.978 -0.092 2.884 -0.096 5.77 -0.17 8.656 -0.1 3.904 0.844 5.752 -3.31 6.704 -11.98 2.746 -25.714 2.122 -37.936 1.104 -0.254 -1.952 -0.582 -4 -0.848 -5.94 -0.244 -1.784 -3.478 -1.444 -3.226 0.424 0.344 2.544 0.708 5 1.02 7.552a1.716 1.716 0 0 0 1.612 1.274c14.906 1.524 29.732 0.166 44.554 -2.038a1.498 1.498 0 0 0 1.104 -1.526c0 -4.328 -0.042 -8.656 -0.086 -12.9 -0.028 -2.97 0.69 -7.386 -0.168 -10.27 -1.342 -4.502 -6.704 -3.352 -10.354 -3.4 -0.85 -0.004 -1.104 1.618 -0.086 1.704Z" fill="#031d40" stroke-width="1"></path><path d="M246.4 91.022a1.522 1.522 0 0 0 -0.6 1.782c1.612 5.856 9.758 4.072 14.426 4.072 16.634 0 33.69 0.266 50.326 -0.424 2.292 -0.094 4.414 -0.084 5.6 -2.46 1.018 -2.038 0.532 -5.092 0.6 -7.214 0.266 -9.078 0.482 -18.162 0.6 -27.242 0.042 -3.48 1.712 -10.2 -1.612 -12.73 -3.042 -2.31 -9.93 -1.102 -13.494 -1.188 -34.248 -0.826 -31.932 -0.18 -40.822 -0.68 -4.16 -0.234 -10.156 -1.828 -13.918 0.85 -2.78 1.98 -1.74 7.042 -1.696 9.928 0.166 11.71 -0.092 23.508 0.59 35.306Zm2.2 -41.33c1.644 -3.038 8.91 -1.838 12.136 -1.784 10.6 0.182 21.302 0.294 31.91 0.6a121.436 121.436 0 0 1 16.04 0.51c3.564 0.59 5.444 1.952 5.346 5.772 -0.074 2.884 -0.362 17.736 -0.51 22.4 -0.098 3.14 1.284 14.278 -2.2 15.954 -1.6 0.774 -5.856 0 -7.638 0 -5.152 0 -15.4 0.256 -35.22 0.256 -2.63 0 -18.586 1.696 -19.434 -1.528a1.782 1.782 0 0 0 -0.6 -0.934c0.496 -14.436 -0.148 -40.654 0.17 -41.246Z" fill="#031d40" stroke-width="1"></path><path d="M280.852 84.74c-0.042 -10.778 -0.908 -21.982 -1.95 -32.672a0.68 0.68 0 0 0 -1.358 0 142.42 142.42 0 0 0 1.358 32.928c0.172 1.102 1.954 0.764 1.95 -0.256Z" fill="#031d40" stroke-width="1"></path><path d="M255.308 60.384c4.332 0.38 8.656 0.34 12.984 0.34a1.188 1.188 0 0 0 0 -2.376c-4.328 0 -8.74 -0.086 -12.984 0.338a0.85 0.85 0 0 0 0 1.698Z" fill="#031d40" stroke-width="1"></path><path d="M263.032 68.87a45.288 45.288 0 0 0 -7.554 0.426c-1.018 0.172 -0.6 1.514 0.254 1.612 2.636 0.302 5.262 0.212 7.894 0.254a36.186 36.186 0 0 0 7.042 -0.084c0.934 -0.172 0.76 -1.508 0 -1.698a31.646 31.646 0 0 0 -7.636 -0.51Z" fill="#031d40" stroke-width="1"></path><path d="M266.85 80.412a47.844 47.844 0 0 0 -11.2 -0.254 0.85 0.85 0 0 0 0 1.698c3.65 -0.042 7.294 0.304 10.862 0.6 1.27 0.096 1.524 -1.856 0.338 -2.044Z" fill="#031d40" stroke-width="1"></path><path d="M312.6 55.972a1.434 1.434 0 0 0 -1.444 -1.444c-7.8 0.688 -15.618 -0.568 -23.422 -0.17a1.582 1.582 0 0 0 -1.02 2.632c-0.6 6.788 -0.126 13.748 -0.084 20.538 0.012 2.036 -1.046 7 0.848 8.486 2.092 1.65 9 0.78 11.372 0.848a59.442 59.442 0 0 0 12.222 0.086 1.524 1.524 0 0 0 1.018 -1.018c1.352 -9.76 0.29 -20.192 0.51 -29.958Zm-3.736 28c-2.8 -0.68 -6.534 -0.086 -9.42 -0.17a54.426 54.426 0 0 0 -9.08 -0.34 2.188 2.188 0 0 1 -1.018 -0.084 21.074 21.074 0 0 1 -0.17 -3.226c-0.34 -7.638 0.254 -15.36 -0.34 -23 6.96 -0.17 13.834 0.6 20.8 0.254 -0.622 14.314 0.164 27.514 -0.778 26.572Z" fill="#031d40" stroke-width="1"></path><path d="M81.162 321.774a0.68 0.68 0 0 0 0 1.358c12.05 0.424 24.018 0.522 36.068 0.084 11.288 -0.41 22.942 -0.2 34.032 -2.63 1.106 -0.242 0.764 -1.704 -0.254 -1.782 -11.538 -0.906 -23.34 0.428 -34.882 0.932 -11.71 0.514 -23.35 1.032 -34.964 2.038Z" fill="#031d40" stroke-width="1"></path><path d="M102.378 314.05a20.1 20.1 0 0 0 -1.018 -11.626c-0.254 -0.764 -1.6 -1.016 -1.782 0a20.044 20.044 0 0 0 1.272 11.8 0.834 0.834 0 0 0 1.528 -0.174Z" fill="#031d40" stroke-width="1"></path><path d="M82.18 330.176a1.526 1.526 0 0 0 -2.546 0.678c-3.054 11.882 -5.632 23.776 -8.74 35.644 -1 3.824 -5.176 11.694 0.678 12.476 8.066 1.078 16.634 0.556 24.696 0.678 12.816 0.2 25.544 0.306 38.36 0.17 10.862 -0.114 22.144 0.05 32.928 -1.782a1.836 1.836 0 0 0 1.274 -2.292c-3.904 -15.298 -7.576 -30.574 -10.948 -46a1.926 1.926 0 0 0 -1.782 -1.358c-24.256 -2.532 -49.648 -0.76 -73.92 1.786Zm72.476 1.782q5.094 21.384 10.184 42.772c-15.696 2.452 -77.4 1.338 -92.334 0.51 2.486 -12.436 9.474 -28.4 10.098 -42.858 24.018 1.358 48.036 -2.546 72.052 -0.424Z" fill="#031d40" stroke-width="1"></path><path d="M109 348.6c-0.554 -6.03 -0.934 -11.712 -6.28 -16.04 -6.704 0.17 -13.4 0.17 -20.114 -0.256 -0.6 13.86 -7.442 29.574 -10.098 42.858 10.232 0.6 6.274 0.326 22.064 0.764 7.252 -4.398 15.428 -16.482 14.428 -27.326Z" fill="#10b981" stroke-width="1"></path><path d="M383.2 145.42a316.418 316.418 0 0 0 -21.046 -25.8 1.324 1.324 0 0 0 -1.868 0 304.438 304.438 0 0 0 -23.932 21.726c-4.752 -1.358 -11.362 0.278 -15.362 1.95a28.37 28.37 0 0 0 -16.888 20.454c-0.912 4.332 -0.6 8.486 -3.648 11.712 -0.426 -0.934 -0.748 -1.96 -1.188 -2.886a1.486 1.486 0 0 0 -2.038 -0.51c-19.982 12.384 -40.65 25.46 -58.048 41.33 -11.468 -26.68 -51.144 -81.336 -82.746 -77.228a95.018 95.018 0 0 0 -8.316 -25.8c-0.506 -1.02 -2.294 -0.338 -1.868 0.764C153 128.6 153.132 136.344 153.8 137.018c-2.546 8.232 -4.414 16.634 -6.704 24.952 -1.856 -0.62 -10.418 -14.576 -24.952 -19.69 0 -1.92 -6.2 -26.15 -18.756 -50.664a1.264 1.264 0 0 0 -1.526 -0.6c-6.316 2.706 -8.32 -3.156 -7.554 -7.044 1.182 -6 7.088 -5.988 8.486 -6.62a15.958 15.958 0 0 0 8.148 -12.136c0.08 -3.82 -1.442 -7.554 -1.442 -11.458 0 -4.498 1.362 -8.642 6.11 -10.098 3.568 -1.094 9.534 -0.744 11.118 3.648 1.366 3.8 2.69 -4.434 6.534 -8.486s11.676 -4.734 14.682 0.68c3.252 5.856 0.476 14.414 6.45 19 14.242 32.55 -6.286 58.722 -32 49.136 -1.36 -0.506 -1.956 1.448 -0.934 2.2 10.822 8.032 26.908 1.276 33.862 -8.656 8.492 -12.132 7.8 -28.346 1.442 -41.246a10.312 10.312 0 0 0 12.4 -3.904c0.672 -0.938 -0.424 -1.782 -1.272 -1.698 -8.912 1.444 -7.978 -12.644 -10.014 -18.33a46.502 46.502 0 0 0 -14.848 -21.194c-8.2 -6.228 -17.234 -5.538 -26.818 -2.8 -4.416 1.262 -11.542 3.564 -13.154 8.656a18.558 18.558 0 0 0 -11.628 1.104c-5.108 2.6 -6.112 7.8 -6.874 12.984 -1.4 9.468 -1.948 25.156 -4.498 29.788 -1.74 3.164 -7.232 3.656 -8.4 -0.254a1.258 1.258 0 0 0 -2.46 0.34 11.626 11.626 0 0 0 4.668 11.032 9.046 9.046 0 0 0 11.032 -1.698c0.696 -0.748 2.022 0.244 1.442 1.104a11.64 11.64 0 0 1 -9.25 4.414c0.068 0.2 3.138 8.786 3.226 9 2.126 5.088 5.174 12.142 11.116 13.662 4.328 1.108 9.252 -0.508 13.156 -2.63 6.28 13.154 9.504 27.326 14 41.244 -4.024 -0.356 -16.106 4.644 -21.472 10.944 -27.916 7.9 -48.788 27.332 -63.14 52.024 -19.99 34.4 -20.118 55.056 -13.324 81.982 3.662 14.508 8.572 30.042 16.634 42.942a13.662 13.662 0 0 0 6.958 9.42c6.618 3.23 13.92 -1.274 15.786 -7.8a24.142 24.142 0 0 0 3.988 3.14c-5.26 16.974 -9.588 34.188 -14.512 51.09a1.678 1.678 0 0 0 1.614 2.122q62.364 4.626 124.922 2.97c11.03 -0.28 22.066 0.254 33.098 0.084 -1.912 -24.854 -1.634 -44.8 -11.286 -86.818 6.156 -9.284 7.722 -26.754 7.722 -37.85 6.148 12.296 15.172 14.778 28.176 11.626 18.344 -4.446 42.426 -16.4 64.838 -36.832 5.506 -5.018 8.706 -8.312 9.506 -15.784a102.092 102.092 0 0 0 0.508 -12.816c7.298 -4.838 16.126 -10.524 21.472 -17.482 0.67 2.68 23.034 2.976 34.2 -10.6A42.6 42.6 0 0 0 372 165.874c0.496 -2.04 2.122 -6.62 0.17 -8.4 3.648 -3.4 7.382 -6.8 10.948 -10.27a1.852 1.852 0 0 0 0.082 -1.784ZM155.336 138.2c8.656 -0.254 16.124 2.716 23.762 6.536 0.17 14.342 -8.4 24.866 -17.822 34.88a48.15 48.15 0 0 0 -12.052 -15.446c2.208 -8.57 4.754 -17.222 6.112 -25.97Zm-35.9 5C137.82 152.4 142.4 162.16 144.048 164a39.932 39.932 0 0 0 -7.978 23.508c-9.166 -1.018 -17.744 -6.358 -23.932 -12.9 -5.692 -6.018 -9.08 -13.494 -13.324 -20.452 6.206 -6.202 13.338 -11.302 20.622 -10.942Zm185.6 74.938c-0.19 3.988 -0.2 8.472 -2.2 11.966a38.6 38.6 0 0 1 -7.554 8.062 158.042 158.042 0 0 1 -53.72 32.504c-7.382 2.634 -17.29 6.236 -24.866 2.292 -6.43 -3.348 -9 -11.118 -11.626 -17.314a265.222 265.222 0 0 0 -6.282 -40.4c-0.244 -1.106 -1.864 -0.6 -1.696 0.51 2.4 15.864 5.2 31.91 5.092 48.034 -0.07 10.354 -0.424 30.976 -9.676 39.292 -3.478 0.34 -7.044 0.764 -10.522 1.274a13.4 13.4 0 0 1 -5.772 6.28 0.9 0.9 0 0 1 -1.272 -0.51c7.468 -4.412 5.334 -20.116 4.922 -27.412a1.022 1.022 0 0 0 -2.038 0c-0.682 13.086 0.4 18.976 -3.224 22.746a57.632 57.632 0 0 0 -10.014 2.63c-3.734 -12.73 -7.152 -25.616 -11.118 -38.274a1.89 1.89 0 0 0 -1.782 -1.358 186.458 186.458 0 0 0 -33.862 2.2c-2.292 0.42 -1.358 3.982 0.934 3.564a175 175 0 0 1 31.486 -2.036c28.86 99.364 29.042 98.664 32.418 113.466 -43.282 2.886 -86.564 0.764 -129.76 -2.2 7.976 -29.2 16.942 -57.748 26.4 -86.48 0.504 -1.53 -1.79 -2.04 -2.376 -0.678a360.028 360.028 0 0 0 -12.306 33.862c-10.692 -8.148 -13.2 -19.478 -16.038 -32.674a1 1 0 0 0 -1.952 0.254c0.818 10.272 3.818 21.896 10.692 30.042 -13.134 19.7 -23.188 0.696 -15.87 -24.696 3.774 -13.092 11.762 -22.8 20.538 -31.57 2.716 -2.716 6.45 -6.874 10.694 -6.28 0.508 1.868 1.032 3.732 1.442 5.6a1.476 1.476 0 0 0 2.886 -0.424c-0.476 -9.07 -6.256 -18.6 -7.554 -22.49 5.772 -9.676 14.768 -17.568 22.66 -25.46 1.188 -1.188 -0.676 -3.052 -1.868 -1.868 -7.702 7.66 -16.294 15.276 -21.8 24.782 -2.716 -6.79 -5.314 -13.732 -7.554 -20.708a1.102 1.102 0 0 0 -2.12 0.6c2.312 7.776 11.966 33.6 13.238 37.766 -2.8 -0.424 -5.254 1.028 -7.8 3.054 -19.636 15.586 -28.678 36.548 -28.176 55.674a217.986 217.986 0 0 1 -13.918 -40.228c-12.6 -55.416 28.276 -113.18 74.684 -126.536 8.062 16.72 20.2 34.036 40.48 35.56 1.472 0.11 1.422 -1.16 1.698 -4.752 1.12 1.12 11.43 9.824 12.9 8.826A23.438 23.438 0 0 0 158.22 188.2a32.104 32.104 0 0 0 -4.242 -12.56c-0.516 -1.016 0.758 -2.032 1.528 -1.188a23.454 23.454 0 0 1 4.922 8.91c3.448 0 13.09 -13.742 15.36 -17.738 3.324 -5.848 6.62 -12.898 5.686 -19.688 16.496 6.344 45.818 51.132 54.23 68.572 3.81 7.898 4.6 16.628 5 25.29a1.784 1.784 0 0 0 3.564 0 59.886 59.886 0 0 0 -4.584 -24.186c19 -13.664 37.258 -27.752 57.286 -40.058a93.136 93.136 0 0 1 8.07 42.598Zm31.316 -32.844a78.7 78.7 0 0 1 -17.822 -23.084 24.244 24.244 0 0 1 8.826 -7.298c0.768 -0.416 0.254 -1.698 -0.6 -1.358a21.492 21.492 0 0 0 -10.778 7.552 1.702 1.702 0 0 0 -0.6 2.122 77.83 77.83 0 0 0 19.858 25.46 1.704 1.704 0 0 0 2.292 0q16.488 -14.562 32.674 -29.448c0.69 2.414 -3.732 19.4 -13.24 26.308 -6.8 4.936 -18 6.536 -26.4 6.536 -1.056 -2.642 -6.966 5.232 -22.488 15.7a98.63 98.63 0 0 0 -6.854 -29.944c5.942 -3.904 4.346 -11.874 6.876 -18a25.4 25.4 0 0 1 19 -15.446c0.848 -0.17 13.918 -1.442 10.098 3.65 -0.764 1.018 0.664 2.182 1.612 1.612 3.094 -1.86 2.292 -5.6 -0.508 -7.384 7.978 -6.024 15.19 -13.238 22.66 -19.858 1.442 1.612 2.8 3.224 4.158 4.922a4.114 4.114 0 0 0 0.424 4.582l4.498 5.432a3.984 3.984 0 0 0 4.244 1.358c1.782 2.376 3.564 4.752 5.26 7.214 -14.076 13.416 -28.59 26.478 -43.186 39.386Z" fill="#031d40" stroke-width="1"></path><path d="M327.276 165.618c-0.938 -0.674 -1.88 0.6 -1.444 1.444a22.658 22.658 0 0 0 2.632 3.648c3.986 4.926 6.086 2.262 2.12 -1.866a26.66 26.66 0 0 0 -3.308 -3.226Z" fill="#031d40" stroke-width="1"></path><path d="M134.034 68.616c0.984 3.124 2.124 6.28 3.31 9.336 1.02 2.63 6.114 13.638 -1.698 12.05a1.154 1.154 0 0 0 -0.848 2.122c3.256 2.16 6.98 -0.674 7.722 -4.074a13.478 13.478 0 0 0 -1.612 -8.062c-1.726 -4.062 -3.48 -8.062 -5.516 -11.966a0.758 0.758 0 0 0 -1.358 0.594Z" fill="#031d40" stroke-width="1"></path><path d="M139.466 67.258c-0.6 0.764 0.158 1.936 1.102 1.358A49.446 49.446 0 0 0 148.546 62c0.424 -0.678 -0.254 -1.778 -1.104 -1.442a46.256 46.256 0 0 0 -7.976 6.7Z" fill="#031d40" stroke-width="1"></path><path d="M124.698 75.576a0.85 0.85 0 0 0 0 -1.698c-3.31 -0.254 -7.788 -0.646 -10.862 1.104 -4.636 2.644 7.468 0.594 10.862 0.594Z" fill="#031d40" stroke-width="1"></path><path d="M124.2 96.368a0.92 0.92 0 0 0 -1.444 1.102c2.462 3.904 8.742 6.282 12.816 3.736 0.678 -0.426 0.424 -1.698 -0.424 -1.614 -4.762 0.208 -6.728 0.652 -10.948 -3.224Z" fill="#031d40" stroke-width="1"></path><path d="M156.694 197.614c-0.508 -1.928 -10.642 -0.908 -10.778 0 -2.18 14.444 -2.252 29.7 -3.056 44.3 -0.36 6.534 1.188 8.4 5.686 12.9a43.352 43.352 0 0 1 11.2 20.028 1.634 1.634 0 0 0 3.14 0c9.242 -28.4 8.704 -22.314 4.328 -36.492 -4.114 -13.338 -6.922 -27.06 -10.52 -40.736Z" fill="#031d40" stroke-width="1"></path><path d="M149.904 311.08a24.232 24.232 0 0 0 -0.6 -10.948 96.53 96.53 0 0 0 -4.158 -15.616c-0.26 -0.676 -1.444 -0.678 -1.444 0.17 0.68 8.826 2.632 17.568 3.82 26.31a1.252 1.252 0 0 0 2.382 0.084Z" fill="#031d40" stroke-width="1"></path><path d="M137.428 311.08a115.188 115.188 0 0 0 -3.818 -30.722c-0.278 -1.098 -2.138 -0.932 -2.038 0.256 0.878 10.28 2.292 20.536 4 30.72 0.16 1.02 1.772 0.764 1.856 -0.254Z" fill="#031d40" stroke-width="1"></path><path d="M123.17 311.08c2.086 -7.164 0.668 -15.444 0 -22.66 -0.086 -0.932 -1.6 -1.356 -1.782 -0.254a77.47 77.47 0 0 0 -0.254 22.914c0.182 1.186 1.766 0.93 2.036 0Z" fill="#031d40" stroke-width="1"></path><path d="M134.968 58.6c-0.184 0.846 0.944 1.706 1.612 0.934 4.952 -5.724 7.388 -3.248 10.184 -4.498a1.214 1.214 0 0 0 0.254 -1.868c-2.322 -2.796 -10.818 -0.268 -12.05 5.432Z" fill="#031d40" stroke-width="1"></path><path d="M112.054 66.156c-0.502 0.6 -0.094 1.848 0.848 1.442a22.564 22.564 0 0 1 12.646 -1.528c1.104 0.158 1.2 -1.364 0.508 -1.866a10.628 10.628 0 0 0 -14.002 1.952Z" fill="#031d40" stroke-width="1"></path><path d="M95.334 272.72a190.682 190.682 0 0 1 -3.224 -41.414c0.022 -1.018 -1.43 -0.932 -1.528 0a141.134 141.134 0 0 0 2.2 42.094c0.37 1.776 2.892 1.018 2.552 -0.68Z" fill="#031d40" stroke-width="1"></path><path d="M106.536 276.37c-10.6 0.042 -22.12 1.632 -32.164 -2.632 -1.016 -0.43 -1.958 1.03 -0.932 1.614 10.036 5.71 21.894 3.946 33.012 3.988 8.4 0.032 11.934 3.22 2.716 8.912a34.48 34.48 0 0 1 -8.826 3.734c-6.368 1.774 -12.138 1.2 -18.502 0.6 -1.698 -0.164 -1.784 2.3 -0.338 2.8 7.026 2.426 15.538 1.38 22.4 -1.104 4.418 -1.6 13.834 -5.516 13.918 -11.372 0.09 -6.032 -6.954 -6.558 -11.284 -6.54Z" fill="#031d40" stroke-width="1"></path><path d="M309.028 78.97a11.496 11.496 0 0 0 -11.8 -6.026c-2.864 0.512 -6.146 3.438 -8.104 6.136a23.412 23.412 0 0 0 0.212 4.304 2.162 2.162 0 0 0 1.018 0.084 54.426 54.426 0 0 1 9.08 0.34c2.4 0.07 7.834 -0.514 9.506 0.23 0.008 -0.33 0.188 -4.878 0.088 -5.068Z" fill="#10b981" stroke-width="1"></path></svg>