<svg viewBox="0 0 400 400" xmlns="http://www.w3.org/2000/svg" height="400" width="400" id="Profile-2--Streamline-Brooklyn.svg"><desc>Profile 2 Streamline Illustration: https://streamlinehq.com</desc><path d="M200.822 96.2c0.346 -0.94 -0.38 -1.834 -0.986 -2.486a7.49 7.49 0 0 0 -8.676 -2.214c-1.834 1 -1.638 3.232 0.8 3.032 3.774 -0.308 4.126 0.316 6.734 2.018 0.864 0.562 1.706 0.774 2.128 -0.35Z" fill="#031d40" stroke-width="1"></path><path d="M177.874 104.56c1.684 0.224 1.684 -4.884 0 -4.55 -1.91 0.272 -1.622 4.334 0 4.55Z" fill="#031d40" stroke-width="1"></path><path d="M183.836 146.464a0.94 0.94 0 0 0 1.864 0c0.274 -2.618 0.456 -5.248 0.698 -7.872 6.446 0.334 13.162 -1.292 15.742 -5.43 5.574 -8.936 -0.758 -19.442 -4.55 -20.974a33.29 33.29 0 0 0 -7.932 -0.894 2.094 2.094 0 0 0 0.698 -1.744c0 -0.956 -1.424 -0.97 -1.744 -0.2 -0.528 1.274 -5.8 0.97 -6.066 -0.53a12.672 12.672 0 0 1 1.516 -5.384c0.34 -0.778 -1.36 -3.64 -3.214 2.684 -0.832 2.836 -0.288 4.458 1.152 5.292a20.644 20.644 0 0 0 -8.144 1.73c-4.854 3.032 -5.216 15.468 -0.758 20.686 2.032 2.38 6.218 3.974 10.844 4.55a34.27 34.27 0 0 0 -0.106 8.086Zm12.784 -30c3.23 7.068 -8.266 9.904 -12.36 3.58 5.05 0.228 10.374 -1.502 12.4 -3.58Z" fill="#031d40" stroke-width="1"></path><path d="M193.6 99.948c-1.4 0.6 -1.654 4.558 0.136 4.656 2.096 0.116 1.702 -5.426 -0.136 -4.656Z" fill="#031d40" stroke-width="1"></path><path d="M179.908 95.02c0.818 0.09 2.376 -0.666 1.258 -2.488 -1.294 -2.104 -7.022 -0.28 -7.856 2.898a1.4 1.4 0 0 0 2.306 1.38 4.816 4.816 0 0 1 4.292 -1.79Z" fill="#031d40" stroke-width="1"></path><path d="M169.184 93.882a75.874 75.874 0 0 0 1.518 17.668c0.294 0.984 1.93 0.746 1.788 -0.302a112.832 112.832 0 0 1 -0.318 -26.448c6.976 1 25.268 0.562 33.366 -0.242a47.752 47.752 0 0 0 3.032 16.348c1.826 4.086 2.746 -0.92 8.038 -1.972 3.8 -0.754 4.946 2.078 4.4 5.628a15.498 15.498 0 0 1 -6.068 9.282c-2.292 1.674 1.078 25.4 1.624 29.026a1.138 1.138 0 0 0 2.154 -0.258c-0.926 -8.538 -2.094 -16.242 -2.534 -26.646a17.092 17.092 0 0 0 7.2 -11.45c9.8 -1.062 9.722 -12.71 3.186 -15.166a7 7 0 0 0 -3.034 -13.65c7.264 -6.46 -2.942 -18.532 -9.418 -12.936 1.516 -12.346 -19.958 -16.516 -22.4 -4.02 -3.6 -6.9 -18.108 -5.884 -16.092 4.748 -10.92 -3.882 -16.53 10.2 -9.494 15.8 -8.932 1.76 -6.38 13.544 3.052 14.59Z" fill="#031d40" stroke-width="1"></path><path d="M144.16 263.758c1.258 -0.7 0 -2.684 -1.516 -2.124 -17.048 6.326 -28.698 -6.49 -34.882 -18.928 -10.38 -20.88 -16.16 -48.336 -22.218 -71.432 -3.696 -14.09 -7.166 -22.746 -12.3 -37.096 -3.416 -9.552 -5.694 -15.548 -5.974 -26.328 -0.036 -1.364 -2.068 -0.88 -2.2 0.274 -2.046 17.8 11.236 36.49 17.744 63.696 5.156 21.552 12.588 52.46 21.916 71.676 8.524 17.562 23.07 29.356 39.43 20.262Z" fill="#031d40" stroke-width="1"></path><path d="M74.73 128.31c-1.042 0.726 0 2.32 1.124 1.864a65.176 65.176 0 0 1 18.4 -5.944 27.146 27.146 0 0 0 3.336 7.386c2.366 2.836 4.704 -0.308 2.684 -1.2a35.3 35.3 0 0 1 -3.032 -7c-3.156 -8.902 -3.474 -14.84 -3.686 -24.264 -0.028 -1.214 -1.81 -0.972 -2 0a49.108 49.108 0 0 0 1.85 22.2l-4.67 1.092a85.508 85.508 0 0 1 -2.898 -24.964c0.022 -1.016 -1.684 -1.228 -2.016 -0.212 -1.846 5.654 0 20.232 2.138 25.964l-5.384 1.988a80.25 80.25 0 0 1 -4.414 -25.1 1.016 1.016 0 0 0 -2.016 0c-0.972 4.702 1.2 21.9 3.852 26.388a19.8 19.8 0 0 0 -3.268 1.802Z" fill="#031d40" stroke-width="1"></path><path d="M107.322 139.214c-1.416 8.462 -2.134 10.628 1.518 19.322 8.61 20.5 16.484 30.366 32.12 67.108 0.446 1.046 2.336 0.4 1.926 -0.712 -8.854 -24.266 -19.172 -42.478 -30.984 -67.504 -3.888 -8.24 -2.902 -9.346 -1.364 -17.6 1.662 -8.9 3.662 -20.86 -4.05 -25.628a1.172 1.172 0 0 0 -1.516 1.8c6.066 6.622 3.8 14.552 2.35 23.214Z" fill="#031d40" stroke-width="1"></path><path d="M203.142 299.882c-25.356 -0.462 -52.4 -0.714 -77.726 0.35 -4.748 0.2 -4.034 4.212 0.182 4.322 25.646 0.672 51.874 -1.216 77.346 0 4.794 0.228 5.158 -4.58 0.198 -4.672Z" fill="#031d40" stroke-width="1"></path><path d="M269.8 300.14c-15.166 -0.55 -31.06 -0.068 -46.256 0 -3.246 0.016 -4.11 4.098 -0.122 4.338 15.06 0.906 31.364 0.308 46.514 0.334 4.304 0.008 5.664 -4.46 -0.136 -4.672Z" fill="#031d40" stroke-width="1"></path><path d="M352.178 358.06c-0.166 0 -25.058 0.566 -28.042 1.138 -1.518 0.29 -1.2 2.51 0.258 2.684 2.944 0.35 22.34 -0.446 27.162 -0.6 6.278 -0.182 2.882 -3.45 0.622 -3.222Z" fill="#031d40" stroke-width="1"></path><path d="M244.696 343.136c-7.87 0.162 -28.622 0.492 -35.382 2.078a1.214 1.214 0 0 0 0.136 2.382c10.252 0.696 24.146 -1 35.018 -1.23 2.064 -0.04 2.306 -3.272 0.228 -3.23Z" fill="#031d40" stroke-width="1"></path><path d="M355.954 342.348c-9.6 0.446 -20.52 0.334 -29.938 1.244 -3.776 0.364 -3.472 3.294 0 3.26 11.102 -0.11 22.434 -1.142 32.578 -1.35 3.322 -0.068 4.066 -3.466 -2.64 -3.154Z" fill="#031d40" stroke-width="1"></path><path d="M129.784 357.21c-1.702 -0.214 -30.2 0.778 -31.228 1.244a1.2 1.2 0 0 0 -0.56 1.622c1.632 3.362 24.46 -0.488 31.438 0.304a1.6 1.6 0 0 0 0.35 -3.17Z" fill="#031d40" stroke-width="1"></path><path d="M237.6 356.68c-4.712 -0.738 -22.342 -0.942 -27.662 0.2 -1.4 0.3 -1.76 2.76 0 2.76 9.236 0 18.502 0.122 27.648 0.092 1.726 -0.01 1.698 -2.788 0.014 -3.052Z" fill="#031d40" stroke-width="1"></path><path d="M140.172 344.972c-10.708 -0.646 -31.074 -1.096 -41.358 0.12a1.382 1.382 0 0 0 0 2.746c13.968 0.258 27.15 -0.574 41.358 0.318 2.108 0.132 2.028 -3.062 0 -3.184Z" fill="#031d40" stroke-width="1"></path><path d="M386.742 236.368a1.23 1.23 0 0 0 -2.458 0c-0.268 51.884 0.888 101.716 1.138 151.66a1.6 1.6 0 0 0 3.184 0c-0.226 -49.99 -1.424 -101.214 -1.864 -151.66Z" fill="#031d40" stroke-width="1"></path><path d="M13.506 236.186c0 50.426 -1.046 102.354 -0.318 152.948a1.214 1.214 0 0 0 2.41 0c0.228 -48.758 1.078 -102.49 1.046 -152.964a1.57 1.57 0 1 0 -3.138 0.016Z" fill="#031d40" stroke-width="1"></path><path d="M244.878 207.75c4.336 6.87 14.014 37.186 17.442 49.668 21.368 -15.88 34.062 -36 36.262 -42.966C278.092 168.378 257.634 152.954 222 144.764c-11.116 14.362 -33.532 16.866 -41.434 2.502 -29.11 5.534 -42.456 16.32 -52.618 36.824 6.2 11.222 13.938 29.24 18.428 38.644 0.378 -5.81 2.176 -25.872 3.972 -31.6 0.306 -0.97 2.078 -0.666 1.958 0.318 -3.38 27.302 -3.534 49.488 -2.504 77.348 27.42 18.2 83.672 8.918 109.894 -9.48 -5.552 -17.168 -11.022 -36.2 -16.85 -50.836 -0.494 -1.232 1.404 -1.732 2.032 -0.734Z" fill="#10b981" stroke-width="1"></path><path d="M82.724 342.348c-1.336 -0.122 -6.6 0.318 -7.584 -0.318s-1.32 -5.128 -2.336 -5.506a63.122 63.122 0 0 0 -10.964 0c-1.334 0.242 -2.412 4.05 -3.034 5.066s-4.884 0.5 -8.296 0.696 -4.276 2.8 -4.55 5.46a68.756 68.756 0 0 0 0 12.4c0.292 3.7 2.078 6.556 5.552 6.8 3.168 0.232 24.918 0.122 28.088 0s6.2 -2.032 6.656 -4.306c0.462 -4.95 0.532 -9.922 0.562 -14.894a5.46 5.46 0 0 0 -4.094 -5.398Zm-16.426 18.32c-9.888 0.506 -7.218 -12.042 0 -11.98s9.116 11.512 0 11.98Z" fill="#10b981" stroke-width="1"></path><path d="M165.438 368.616c3.034 0 16.244 0.136 33.714 -0.4 -1.288 -19.892 -32.226 -21.318 -33.714 0.4Z" fill="#10b981" stroke-width="1"></path><path d="M182.682 349.734c9.844 -0.85 9.1 -14.26 -0.772 -13.878 -10.91 0.422 -9.056 14.726 0.772 13.878Z" fill="#10b981" stroke-width="1"></path><path d="M294.774 336.646c-28.238 0 -28.572 28.02 -1.212 28.116a35.934 35.934 0 0 0 8.69 -1.016c4.928 4.55 9.1 7.19 10.054 6.538s-0.91 -6.34 -2.016 -10.314c10.13 -8.022 4.67 -23.324 -15.516 -23.324Z" fill="#10b981" stroke-width="1"></path><path d="M157.87 73.544c-18.928 4.548 -41.08 19 -49.88 37 -0.74 1.512 1.306 3.026 2.2 1.518a78.08 78.08 0 0 1 48.272 -35.5c1.9 -0.482 1.304 -3.472 -0.592 -3.018Z" fill="#10b981" stroke-width="1"></path><path d="M387.06 226.48c-0.288 -51.2 -0.75 -104.45 -3.868 -155.468 -3.328 -54.476 -28.816 -59.258 -69.914 -60.058 -77.06 -1.496 -153.116 -0.27 -230 -0.06 -56.2 0.154 -71.154 11.45 -70.824 77.12 0.234 46.726 0.242 94.108 0.864 140.77a1.858 1.858 0 0 0 2.046 2.124c15.788 0.34 55.8 -0.342 77.788 -0.168 1.516 0.012 1.956 -2.904 0.166 -2.912 -25.782 -0.09 -51.67 0.168 -77.514 0.258 0.88 -51.836 -1.372 -104.13 -0.4 -155.89 1.006 -54.128 26.22 -58.218 67.88 -58.526 76.77 -0.568 153.42 -1.516 230.22 0.136 58.542 1.26 65.296 16.864 67.354 79.97q2.186 67.11 3.032 134.272h-84.778c13.498 -21.732 15.658 -57.53 10.388 -82.162 -8.1 -37.912 -33.9 -72.752 -80.516 -79.044 -1.516 -0.2 -2.018 2.382 -0.484 2.668 41.482 7.738 69.15 35.578 77.876 77.348 5.07 24.264 3.12 60.342 -10.964 81.654 -0.694 1.048 -0.94 2.6 0.636 2.654 27.48 1.02 56.328 0.088 83.944 0 7.068 -0.024 7.092 -0.35 7.068 -4.686Z" fill="#10b981" stroke-width="1"></path></svg>