<svg xmlns="http://www.w3.org/2000/svg" fill="none" viewBox="0 0 400 400" height="400" width="400" id="No-Messages--Streamline-Brooklyn.svg"><desc>No Messages Streamline Illustration: https://streamlinehq.com</desc><g id="No-Messages--Streamline-Brooklyn.svg"><g id="mail box"><path id="vector" fill="#031d40" d="M203.043 324.7302C203.104 344.8828 203.3582 367.9086 203.993 393.7336C204.0602 396.5162 207.654 396.6066 207.9944 394.713C208.3644 392.6514 208.3706 387.2438 208.358 330.228C206.7292 328.5678 204.9638 326.7562 203.045 324.728L203.043 324.7302Z" stroke-width="1"></path><path id="vector_2" fill="#031d40" d="M331.9142 115.3742C330.2306 104.7946 326.391 95.2908 318.1694 87.7334C303.8738 74.5896 301.417 77.2336 195.9206 76.8152C98.5826 76.4286 81.8766 63.4488 84.077 200.2306C84.1064 202.0904 83.7386 202.9102 81.6054 202.824C65.099 202.162 64.0818 204.0892 64.4664 218.5422C64.622 224.3554 64.3804 222.7896 201.9334 221.8376C204.6192 221.8186 203.062 252.7528 203.024 312.259C204.7558 314.224 206.5528 316.189 208.3496 318.1162V224.4626C208.3496 221.9028 208.3328 221.8944 210.9956 221.8838C228.9206 221.8186 228.4982 220.8918 228.5024 224.5634C228.515 246.3092 229.2358 303.245 229.8622 342.714C231.699 345.5386 232.9852 347.7306 233.8364 348.4894C234.2588 348.1888 234.8178 347.5268 235.4798 346.5852C235.2382 326.0816 234.7822 296.6522 234.1516 254.43C233.643 220.4148 232.4366 221.5958 235.2802 221.7746C236.7682 221.867 323.8206 221.7956 331.9646 220.6082C334.2218 220.2782 334.7156 219.7758 334.953 217.4536C336.2708 204.5788 335.6928 139.146 331.9098 115.3742H331.914ZM70.3742 217.4662C68.5962 217.5102 68.0098 217.1846 68.7328 209.8518C69.2142 204.9824 73.945 207.2142 175.7068 206.5376C177.5226 206.527 176.7156 206.897 177.0056 216.1232C177.0708 218.1702 90.9914 216.9576 70.3742 217.4662ZM176.951 201.2434C176.9762 203.3472 176.9636 202.3028 90.3966 202.6284C87.2504 202.639 89.3836 202.1114 88.4 175.3932C87.6772 155.7196 89.93 126.6518 96.2014 106.1732C102.168 86.6888 123.6468 81.2288 131.8454 81.7164C184.3278 84.8456 176.3562 152.914 176.949 201.2414L176.951 201.2434ZM330.2728 212.2268C330.1824 217.2412 330.6616 216.2178 326.0546 216.4026C315.0714 216.842 322.9904 216.5918 209.6254 217.0648C182.245 217.1804 182.4026 218.0608 182.348 215.4528C182.1736 207.3592 183.7582 188.2342 182.4426 159.2798C180.9 125.3508 179.3552 98.6282 151.0902 81.0542C311.7362 81.0542 306.6144 82.5002 316.4334 93.5634C326.1534 104.515 331.973 117.7596 330.2748 212.2246L330.2728 212.2266Z" stroke-width="1"></path><path id="vector_3" fill="#031d40" d="M233.9162 359.3864C232.5334 360.9584 231.2954 361.549 230.1774 361.2274C230.4148 374.4152 230.6104 383.0804 230.7112 383.5028C231.1064 385.1526 230.0786 393.2902 233.0882 393.515C235.2318 393.6748 235.9296 394.2486 235.6018 357.7092C235.0176 358.2494 234.5468 358.6698 233.9162 359.3864Z" stroke-width="1"></path><path id="vector_4" fill="#031d40" d="M252.0472 130.8004C302.9954 130.8004 298.6092 129.5814 298.895 135.0836C299.349 143.7822 298.605 152.0586 298.5694 157.235C298.5588 158.6536 298.0482 159.4248 296.5896 159.4186C260.6808 159.305 260.7102 161.0348 260.6198 155.871C260.3782 141.853 261.6286 141.8152 259.0646 141.773C196.7024 140.7096 197.2256 141.3884 196.8222 136.6388C196.4018 131.6978 197.0702 130.8172 201.9816 130.7982H252.0452L252.0472 130.8004Z" stroke-width="1"></path><path id="vector_5" fill="#031d40" d="M246.728 212.6744C191.463 212.004 193.7284 212.3486 193.7074 210.0452C193.6864 207.706 193.678 208.4144 275.136 208.6224C324.964 208.7484 324.8672 207.5884 324.922 210.5286C324.9828 213.824 324.9304 212.3424 259.447 212.3402C258.8482 212.3402 246.728 212.6744 246.728 212.6744Z" stroke-width="1"></path></g><g id="spider"><path id="vector_6" fill="#10b981" d="M108.7966 286.974C108.9226 289.4098 105.8458 289.7314 105.8374 286.9088C105.6924 225.423 106.2472 225.4376 107.6112 225.4756C108.7398 225.507 108.7062 226.7324 108.7252 227.5918C109.633 277.8466 108.5254 281.6736 108.7966 286.974Z" stroke-width="1"></path><path id="vector_7" fill="#10b981" d="M106.512 302.1626C99.3076 302.0764 99.2762 290.4732 106.8736 290.6162C114.3932 290.7592 114.534 302.2594 106.51 302.1626Z" stroke-width="1"></path><path id="vector_8" fill="#10b981" d="M119.4498 288.4494C121.2782 288.2666 123.7918 289.4582 123.4724 290.488C123.0562 291.8268 122.659 290.5468 115.4526 292.8692C112.7624 293.7372 111.0244 289.2964 119.4498 288.4494Z" stroke-width="1"></path><path id="vector_9" fill="#10b981" d="M94.6084 293.319C90.3924 293.3736 89.2848 294.149 88.9696 292.9302C88.3916 290.694 99.6166 288.7142 99.438 292.1C99.356 293.6782 97.9584 293.2748 94.6084 293.319Z" stroke-width="1"></path><path id="vector_10" fill="#10b981" d="M91.624 300.557C87.4418 300.267 93.7824 294.9392 97.536 295.6622C99.2424 295.9902 99.2172 298.6466 98.053 298.8736C95.8 299.3128 93.6122 299.9644 91.624 300.557Z" stroke-width="1"></path><path id="vector_11" fill="#10b981" d="M119.3258 297.932C117.1234 297.9594 115.3032 298.262 115.0258 296.6164C114.5762 293.941 121.9192 294.2562 123.9054 296.257C125.53 297.8942 121.8562 297.9006 119.3258 297.932Z" stroke-width="1"></path><path id="vector_12" fill="#10b981" d="M115.6396 299.8676C120.0004 299.7604 123.8906 306.9922 120.816 305.5484C114.841 302.7428 113.582 302.4674 114.078 300.847C114.3154 300.0736 114.9776 299.8256 115.6396 299.8676Z" stroke-width="1"></path><path id="vector_13" fill="#10b981" d="M98.9336 301.3472C101.113 301.3304 101.1864 303.3606 99.831 304.1466C93.9988 307.5366 94.1502 307.3748 93.6752 306.9292C92.3658 305.7018 95.7306 301.3724 98.9336 301.3472Z" stroke-width="1"></path></g><g id="nest"><path id="vector_14" fill="#10b981" d="M104.3116 187.8244C101.0624 182.896 100.5834 184.6068 97.6704 179.048C97.288 178.3124 97.5822 177.478 98.8054 178.0266C102.0586 179.485 110.1458 188.0514 114.1138 191.164C122.016 197.366 128.1528 195.298 141.5024 195.8612C154.8522 196.4244 157.5696 195.4892 163.8976 192.2568C165.1964 191.5926 166.5436 190.752 167.2666 191.9962C167.9896 193.2404 166.4616 193.6796 165.642 194.3228C159.9128 198.8098 153.194 199.4906 146.29 199.3666C124.6388 198.9778 118.5902 199.623 110.8856 193.3602C107.4662 190.5818 93.5302 190.8634 93.6794 188.787C93.7634 187.608 95.2346 187.8244 104.3116 187.8244Z" stroke-width="1"></path><path id="vector_15" fill="#10b981" d="M136.036 169.4938C136.16 170.78 135.5232 171.6606 134.2056 171.6858C129.6996 171.7742 134.7498 166.2342 126.2382 159.1432C120.9504 154.7382 112.092 156.4278 112.3358 169.5528C112.384 172.1314 109.9146 171.852 109.5154 169.929C104.8034 147.3256 133.6906 145.0454 136.036 169.4938Z" stroke-width="1"></path><path id="vector_16" fill="#10b981" d="M165.2974 165.7446C165.4844 168.3442 164.8056 172.5014 162.3782 171.875C159.4484 171.1206 162.0314 167.6128 161.0878 164.1284C158.7318 155.4486 148.9696 161.0474 143.291 168.258C141.2104 170.8998 140.8678 172.121 139.8968 171.627C138.0768 170.6982 141.3112 164.307 144.5562 161.0642C153.669 151.9556 165.2974 153.6242 165.2974 165.7446Z" stroke-width="1"></path><path id="vector_17" fill="#10b981" d="M150.8274 153.8596C151.0376 155.1038 148.976 156.762 147.5068 154.898C146.019 153.0128 143.1648 146.4472 137.2634 150.7682C134.1172 153.0716 133.6338 156.945 131.8138 155.9488C129.6848 154.7844 132.6756 146.008 140.8006 145.1714C145.9854 144.6376 150.548 149.6396 150.8296 153.8576L150.8276 153.8596Z" stroke-width="1"></path><path id="vector_18" fill="#10b981" d="M159.0954 172.9132C170.4338 172.8754 173.2164 179.7058 167.5356 178.2578C157.8322 175.782 152.1642 177.4718 151.624 175.6328C150.8842 173.115 157.267 173.0688 159.0974 172.9132Z" stroke-width="1"></path><path id="vector_19" fill="#10b981" d="M119.6116 175.3154C119.454 174.6134 119.927 174.0776 120.4796 173.88C132.52 169.5632 143.0388 178.2956 135.767 176.9758C123.5144 174.7502 120.0866 177.4108 119.6116 175.3154Z" stroke-width="1"></path><path id="vector_20" fill="#10b981" d="M160.6674 191.3026C160.1126 190.8488 160.1588 190.1362 160.4698 189.6402C167.2834 178.8168 180.9714 179.2392 174.4228 182.6712C163.3932 188.455 162.332 192.6604 160.6674 191.3026Z" stroke-width="1"></path><path id="vector_21" fill="#10b981" d="M105.4528 171.297C122.0348 176.4062 117.6194 184.1172 115.421 181.5364C111.0748 176.4336 100.121 171.6922 105.4528 171.297Z" stroke-width="1"></path><path id="vector_22" fill="#10b981" d="M142.795 178.6066C140.4958 178.3208 140.3024 176.2716 141.761 175.4688C147.5742 172.266 150.3484 168.01 151.294 168.7184C152.6264 169.7188 147.4418 178.1442 142.795 178.6066Z" stroke-width="1"></path><path id="vector_23" fill="#10b981" d="M143.5936 189.9576C143.52 188.974 143.6504 189.0034 153.3452 182.9128C153.7382 182.6648 154.2742 182.0576 154.7596 182.6144C156.42 184.5144 143.9614 194.8922 143.5936 189.9576Z" stroke-width="1"></path><path id="vector_24" fill="#10b981" d="M129.5798 183.0538C129.6344 181.259 130.2944 181.2632 131.1476 182.1648C136.6098 187.9274 137.8308 188.8752 136.6246 190.1426C134.9852 191.8554 130.2754 187.1436 129.5798 183.0538Z" stroke-width="1"></path></g><g id="plant"><path id="vector_25" fill="#10b981" d="M184.7314 290.488C186.4546 283.2204 179.5612 276.7096 185.7612 268.5656C189.4074 263.7782 195.7818 264.6124 196.4102 270.5096C197.1248 277.2392 192.3814 282.9052 189.7626 284.801C176.7576 294.21 213.629 325.6254 223.3324 337.7752C235.049 352.4426 231.2178 360.8786 247.3604 330.5644C249.8572 325.8756 249.0838 321.3864 247.5622 316.7734C246.8792 314.699 239.5024 308.8312 241.2572 299.67C242.449 293.4492 248.5458 293.5564 250.6286 298.8484C254.1552 307.816 246.7426 309.117 251.8812 320.8084C255.2122 313.3056 258.909 304.2852 260.1658 296.173C261.0254 290.6288 258.9048 281.4152 263.6966 273.6496C271.6136 260.821 286.758 271.6446 267.4334 287.7474C264.2872 290.3682 263.7638 290.1412 263.808 291.8078C264.1044 302.8414 258.661 312.3956 259.3272 313.0408C259.9936 313.686 263.6272 311.2628 266.4288 305.7648C267.6814 303.306 270.8696 294.5694 280.4026 296.0994C286.1318 297.0178 286.0898 304.5606 276.6954 309.697C269.6674 313.541 266.227 312.0362 265.586 312.5994C261.4836 316.2058 257.8624 315.981 256.7234 318.854C251.8706 331.1024 246.69 338.412 245.8746 340.6816C249.294 340.4884 251.1098 336.5772 255.6136 332.8552C261.1872 328.2462 269.6358 329.1058 270.3924 333.864C271.149 338.622 264.0182 341.4992 259.0856 341.289C252.3918 341.0032 252.8962 339.5574 251.4756 340.686C246.8498 344.366 245.3072 342.1612 242.2366 346.1396C234.3912 356.3138 235.9758 354.4896 233.4076 357.4066C231.0034 360.1366 229.5258 358.8778 228.2712 354.811C226.8126 350.0844 224.297 342.59 214.6966 333.1662C193.1652 312.0256 196.6308 310.914 188.7748 310.5986C180.9356 310.2856 174.8052 311.7062 171.0516 307.0426C166.7852 301.7424 170.9108 294.5672 177.819 297.1166C186.8834 300.4624 184.6704 308.6882 191.0804 307.5638C185.1852 298.3334 182.0138 294.0418 178.315 285.0742C174.3428 275.4422 165.5412 277.4514 156.1152 270.6126C145.5356 262.9354 160.1714 249.3376 168.557 271.6908C169.654 274.6058 170.5094 272.8488 174.7064 275.7954C171.5308 264.335 169.7508 247.423 169.7676 239.1888C169.8074 220.8624 191.3514 226.127 178.5378 248.4738C174.3534 255.7708 174.1578 254.5792 175.0196 259.4612C178.1258 277.0436 179.6432 279.181 184.727 290.467L184.7312 290.488ZM173.7102 250.3548C175.2738 246.0886 180.5028 239.7184 178.8698 233.653C177.8652 229.9206 173.1282 231.7636 172.8128 236.381C172.4976 240.9984 172.527 245.3844 173.7102 250.3548ZM268.129 308.9026C271.332 310.0102 283.8682 303.2134 281.4408 299.502C280.5434 298.1296 278.9442 298.281 277.4352 298.571C271.706 299.6658 270.1004 304.401 268.129 308.9026ZM263.7302 286.272C270.6342 281.1504 275.0602 273.515 272.7926 271.7854C270.3778 269.9422 264.2514 275.1502 263.7302 286.272ZM186.711 283.0754C191.0678 277.5524 192.4654 276.3418 192.8584 273.286C193.056 271.756 193.451 269.7342 191.755 269.0532C189.9812 268.3408 188.7244 269.9632 187.8144 271.3524C185.4606 274.94 186.1898 278.8322 186.711 283.0754ZM183.8086 307.4672C181.4402 304.424 179.7356 301.8368 177.0288 300.3574C174.3218 298.8778 171.098 300.6788 172.9242 304.4304C174.6476 307.978 180.1834 307.6794 183.8086 307.4652V307.4672ZM254.7752 337.7288C256.2148 338.4644 262.9968 339.2 266.4918 336.4846C271.5884 332.5272 260.0924 329.6396 254.7752 337.7288ZM246.7468 311.5676C248.1654 306.4374 249.5336 303.2408 248.0162 299.586C245.553 293.6572 239.7694 301.1286 246.7468 311.5676ZM165.4654 272.1868C162.6388 266.7456 162.1616 265.098 159.5178 263.4628C155.8568 261.193 150.1864 265.6612 165.4654 272.1868Z" stroke-width="1"></path><path id="vector_26" fill="#10b981" d="M198.3352 351.0134C194.298 347.8442 190.7232 344.0548 186.0952 341.7074C182.0602 339.6604 187.0094 337.1888 184.103 329.8098C179.7672 318.7972 162.0818 330.6064 186.8056 346.5158C189.2036 348.0586 191.4188 349.8932 193.6802 351.6376C194.668 352.3984 195.3194 352.5518 191.1582 354.4034C190.6412 354.6346 184.725 349.3468 181.9362 353.8422C179.7398 357.3878 182.5772 361.1014 186.5912 359.977C192.3266 358.3692 193.4174 355.4416 196.4564 355.5068C197.2004 355.5214 197.7952 355.637 198.392 355.988L198.3352 351.0134ZM181.3708 338.8974C172.2434 328.2882 179.2544 326.6636 181.003 330.4592C182.5036 333.7168 181.6104 336.1316 181.3708 338.8974ZM184.269 355.492C185.1076 354.5274 187.2702 355.7316 187.9406 356.5744C185.1832 358.6572 183.0562 356.8876 184.269 355.492Z" stroke-width="1"></path></g><g id="bird"><path id="vector_27" fill="#10b981" d="M191.484 56.9778C178.4494 47.6108 182.0054 38.664 166.8946 34.1834C160.5498 32.3024 154.4592 30.2532 152.036 22.351C149.3732 13.669 150.01 11.3026 141.9522 9.6718C137.6606 8.8038 129.7164 8.7324 130.12 6.5382C130.267 5.7438 131.0992 5.872 131.7192 5.8404C166.6572 4.155 144.5478 24.7216 166.3376 30.0094C176.3878 32.4516 179.9584 36.0768 184.4854 43.2708C191.3684 54.212 200.168 56.0216 199.1086 59.2266C198.7324 60.3614 196.8894 60.0462 195.641 60.1724C167.378 62.9928 149.4636 39.261 151.6912 37.401C154.1082 35.3834 171.0306 58.1988 191.486 56.98V56.9778Z" stroke-width="1"></path><path id="vector_28" fill="#10b981" d="M169.4312 70.6616C169.6142 72.345 167.6554 73.2256 167.0334 71.1618C163.6622 59.9748 164.0868 58.9386 161.8402 59.7898C158.9882 60.87 157.143 59.092 158.4586 62.7448C159.1564 64.6804 161.3106 71.4372 159.2972 71.8806C158.2064 72.1202 158.1202 71.8702 154.4192 62.377C153.8916 61.0256 153.2528 60.351 151.5672 59.9958C121.623 53.672 135.6388 22.3804 123.1782 8.7828C120.5532 5.9182 118.2162 6.2734 118.9412 4.6614C119.9522 2.4168 127.5306 6.1956 129.83 11.3216C135.8658 24.7848 131.8222 31.901 137.3664 43.8446C146.5968 63.7346 164.833 51.8182 167.6534 59.7772C168.9038 63.308 169.2946 66.9544 169.4314 70.6616Z" stroke-width="1"></path><path id="vector_29" fill="#10b981" d="M190.6726 46.108C188.7014 46.9802 186.8288 45.3514 188.9976 43.441C201.45 32.462 197.4148 20.3944 199.92 20.5414C203.5664 20.7538 203.3792 40.482 190.6726 46.1102V46.108Z" stroke-width="1"></path><path id="vector_30" fill="#10b981" d="M186.0386 21.296C185.9524 28.242 182.0076 33.6746 179.9458 31.9282C179.2754 31.3586 179.2922 30.581 179.7484 29.8454C185.0592 21.3044 179.0464 12.1244 180.8432 11.414C183.5396 10.3526 185.7402 17.9144 186.0386 21.296Z" stroke-width="1"></path><path id="vector_31" fill="#10b981" d="M194.174 21.5924C194.3568 23.6918 193.0538 27.2142 191.425 26.7476C190.826 26.5774 190.6118 26.0752 190.7316 25.5498C192.0156 19.9362 187.8124 11.5948 189.21 11.002C191.299 10.1152 194.1088 17.223 194.174 21.5902Z" stroke-width="1"></path><path id="vector_32" fill="#10b981" d="M137.4926 15.6972C137.8098 12.7612 142.0636 12.944 141.9564 15.6846C141.8346 18.7594 137.6522 18.6732 137.4926 15.6972Z" stroke-width="1"></path></g></g></svg>