<svg viewBox="0 0 400 400" xmlns="http://www.w3.org/2000/svg" height="400" width="400" id="No-Files-3--Streamline-Brooklyn.svg"><desc>No Files 3 Streamline Illustration: https://streamlinehq.com</desc><path d="M307.186 94.694c-5.788 -7.11 -15.696 -8.6 -24.8 -6.8 -0.97 -28.8 -19.238 -50.964 -40.322 -56.51 -15.894 -4.336 -34.082 -0.838 -46.346 11.4 -13.508 -13.104 -33.846 -17.732 -52.032 -13.356 -20.674 4.87 -35.772 21.356 -42.026 41.47 -3.564 11.41 -4.846 27.326 -1.2 38.12a49.324 49.324 0 0 0 -5.334 0.286 39.388 39.388 0 0 0 -12.668 2.496c-1.112 0.418 -0.556 2.228 0.558 1.8a38.06 38.06 0 0 1 11.366 -2.346c3.828 -0.292 5.628 -0.336 6.516 -0.306 0.2 0 2.632 0.474 2.016 -0.966 -3.838 -9.462 -3.024 -24.18 -0.696 -33.952C107.032 55.98 120.758 38.4 141.04 32.354a54.28 54.28 0 0 1 54 12.8 0.93 0.93 0 0 0 1.4 0 46.068 46.068 0 0 1 42.718 -12.246c22.714 4.982 41.044 28.162 41.466 56.636a0.978 0.978 0 0 0 1.252 0.974c7.376 -1.67 15.864 -1.4 21.848 3.756 9.93 8.55 7.972 25.852 -1.4 36.04 -10.266 11.074 -27.812 16.182 -43.832 20.456 -25.432 6.972 -51.642 9.916 -75.108 11.23 -26.732 1.498 -52.764 0.544 -64.118 1.162 -0.97 0.054 -1.298 0.538 -0.352 0.558 37.2 0.822 73.646 0.988 110.486 -5.296 16.2 -2.7 37.942 -7.736 53.016 -13.914 14.814 -5.982 27.52 -15.094 29.36 -31.032a25.12 25.12 0 0 0 -4.59 -18.784Z" fill="#10b981" stroke-width="1"></path><path d="M170.678 114.174a12.31 12.31 0 0 0 10.158 2.504 13.638 13.638 0 0 0 9.184 -5.566c0.558 -0.834 -0.834 -1.948 -1.4 -1.112a13.3 13.3 0 0 1 -7.932 4.87 14.4 14.4 0 0 1 -9.324 -1.53c-0.546 -0.278 -1.236 0.408 -0.686 0.834Z" fill="#031d40" stroke-width="1"></path><path d="M226.478 104.852c5.942 4.37 14.6 3.2 20.036 -1.4 0.976 -0.834 -0.416 -2.088 -1.4 -1.4a17.6 17.6 0 0 1 -18.226 1.948c-0.55 -0.262 -0.97 0.44 -0.41 0.852Z" fill="#031d40" stroke-width="1"></path><path d="M205.328 121.55a49.254 49.254 0 0 1 10.018 -1.252c0.556 0 1.67 0 2.088 -0.418 1.252 -1.67 -2.366 -1.4 -2.924 -1.4a30.284 30.284 0 0 0 -9.322 2.088c-0.696 0.286 -0.416 1.124 0.14 0.982Z" fill="#031d40" stroke-width="1"></path><path d="M312.054 76.466c1.4 -4.732 2.924 -9.462 4.314 -14.054a23.216 23.216 0 0 1 3.2 -7.932c1.948 -2.506 5 -2.506 7.93 -2.226a25.758 25.758 0 0 0 15.028 -3.34 0.908 0.908 0 1 0 -0.974 -1.532 23.748 23.748 0 0 1 -14.054 3.062 10.494 10.494 0 0 0 -8.766 2.226 19.454 19.454 0 0 0 -3.618 7.654c-2.8 9.262 -10.56 32.984 -7.8 31.726 2 -1.99 1.774 -6.19 4.74 -15.584Z" fill="#031d40" stroke-width="1"></path><path d="M337.658 56.01a20.386 20.386 0 0 0 13.08 2.088c3.2 -0.836 6.958 -3.2 7.374 -6.82 0.142 -1.112 -1.4 -1.112 -1.8 -0.278a7.814 7.814 0 0 1 -2.366 3.618c-5.084 3.958 -11.514 1.044 -15.584 0.14 -0.844 -0.14 -1.4 0.974 -0.704 1.252Z" fill="#031d40" stroke-width="1"></path><path d="M359.784 55.036a11.87 11.87 0 0 1 -6.4 6.678c-0.68 0.228 -0.372 1.748 0.696 1.4a10.506 10.506 0 0 0 4.6 -2.782 7.898 7.898 0 0 0 2.226 -4.87c0.13 -0.844 -0.834 -1.262 -1.122 -0.426Z" fill="#031d40" stroke-width="1"></path><path d="M361.732 59.906a10.85 10.85 0 0 1 -2.644 4.174c-1.254 1.252 -3.062 1.948 -4.454 3.2 -0.834 0.696 0.836 0.836 1.114 0.836a7.112 7.112 0 0 0 4.314 -2.644 10.4 10.4 0 0 0 2.784 -5.148c0.416 -0.836 -0.826 -1.248 -1.114 -0.418Z" fill="#031d40" stroke-width="1"></path><path d="M14.552 87.318c1.114 3.34 5.15 5.288 8.35 6.124a17.4 17.4 0 0 0 12.94 -1.114c0.696 -0.278 1.4 -1.114 0.974 -1.67a1.462 1.462 0 0 0 -1.67 0 16.814 16.814 0 0 1 -19.2 -3.34c-0.746 -0.746 -1.726 -1 -1.394 0Z" fill="#031d40" stroke-width="1"></path><path d="M11.908 93.442a10.428 10.428 0 0 0 6.958 7.374c1.4 0.556 4.036 1.252 5.428 0.278 1.67 -1.112 -0.696 -1.4 -1.67 -1.67a16.816 16.816 0 0 1 -4.732 -1.112 11.932 11.932 0 0 1 -5 -5.15c-0.292 -0.562 -1.136 -0.274 -0.984 0.28Z" fill="#031d40" stroke-width="1"></path><path d="M10.8 100.956A10.4 10.4 0 0 0 15.8 105.4c1.67 0.696 5.288 1.67 6.678 0a0.484 0.484 0 0 0 -0.138 -0.696 11.876 11.876 0 0 0 -3.2 -0.278A10.746 10.746 0 0 1 11.492 100.4c-0.278 -0.418 -0.974 0 -0.692 0.556Z" fill="#031d40" stroke-width="1"></path><path d="M10.238 108.33c9.924 7.216 28.51 8.4 42.72 0.836 1.8 -0.974 3.478 -2.088 5.148 -3.2a21.894 21.894 0 0 0 4.042 -3.5c0.694 -1 0.834 -1.886 -0.57 -1.252a20.356 20.356 0 0 0 -3.674 2.462A44.37 44.37 0 0 1 22.2 111.53a68.784 68.784 0 0 1 -11.4 -3.896c-0.7 -0.278 -1.118 0.418 -0.562 0.696Z" fill="#031d40" stroke-width="1"></path><path d="M57.132 114.036c1.114 2.644 2.226 5.426 3.34 8.07 1.252 2.784 23.934 51.346 26.578 56.356 2.226 4.036 5.566 8.07 10.436 8.766a8.568 8.568 0 0 0 6.4 -1.252 20.952 20.952 0 0 0 4.6 -5.288c9.75 -14.474 12.646 -28.038 20.038 -48.284 0.556 -1.4 0.974 -2.644 1.4 -4.036 0.278 -0.974 -1.252 -1.67 -1.67 -0.696 -6.714 14.774 -7.768 29.652 -22.4 53.434a9.498 9.498 0 0 1 -5 4.314c-4.6 1.112 -8.766 -2.506 -11 -6.124a57.628 57.628 0 0 1 -3.338 -6.54c-1.254 -2.642 -16.282 -34.09 -18.786 -39.24 -5.4 -11.4 -6.294 -12.888 -9.88 -19.342 -0.3 -0.834 -0.85 -0.556 -0.718 -0.138Z" fill="#031d40" stroke-width="1"></path><path d="M137.978 110c-2 -4.846 -5.286 -10.436 -10.436 -12.524 -5.326 -2.282 -8.248 1.648 -11.132 6.262 -8.698 14.302 -15.182 34.038 -19.028 50.2 -6.068 -15.178 -25.462 -45.926 -29.256 -52.566 -3.932 -6.292 -5.53 -11.496 -13.08 -14.2 -8.146 -2.962 -16.4 -1.6 -21.012 -7.376 -0.556 -0.696 -1.53 0.14 -1.114 0.836 4.476 7.672 16.908 4.87 25.048 9.878 3.556 2.264 5.308 5.878 7.8 10.02C72.446 112 78.972 121.956 86.354 135.6 95.048 151.542 95.844 155.18 100 164c0.28 0.696 1.4 0.14 1.114 -0.418a60.788 60.788 0 0 0 -2.922 -7.932c1.492 -4.882 7.902 -24.356 10.576 -31.308a116.774 116.774 0 0 1 11.26 -22.542c5.4 -7.188 12.708 1.032 16.142 9.044 0.418 0.826 2.214 0.134 1.808 -0.844Z" fill="#031d40" stroke-width="1"></path><path d="M363.958 66.586c-8.622 12.054 -26.3 7.374 -37.848 3.2 -1.67 -0.696 -3.48 -1.4 -5.15 -1.948 -0.834 -0.278 -1.39 0.974 -0.556 1.53a31.336 31.336 0 0 0 6.888 3.134c-1.13 4.068 -3.23 17.762 -13.15 69.224a46.78 46.78 0 0 1 -5 15.446 31.098 31.098 0 0 1 -13.496 -13.914c-0.558 -1.254 -2.366 -0.14 -1.81 0.974A33.352 33.352 0 0 0 309 159.4a0.966 0.966 0 0 0 1.4 -0.418 43.352 43.352 0 0 0 5.286 -14.332c1.114 -5.704 12.66 -68.976 13.23 -71.674a84.838 84.838 0 0 0 11.122 2.518c6.262 1.112 12.942 1.252 18.646 -1.81a13.89 13.89 0 0 0 6.54 -6.4c0.126 -0.698 -0.862 -1.264 -1.266 -0.698Z" fill="#031d40" stroke-width="1"></path><path d="M284.364 79.108c3.746 -2.8 8.49 -6.54 13.498 -4.6s4.732 10.156 5.428 14.61c0.138 0.974 1.668 0.696 1.668 -0.278a41.348 41.348 0 0 0 -1.4 -10.02c-1.506 -6.024 -6.66 -8 -12.384 -5.982a21.176 21.176 0 0 0 -7.236 5.286c-0.688 0.568 -0.138 1.4 0.426 0.984Z" fill="#031d40" stroke-width="1"></path><path d="M205.188 195.576a117.388 117.388 0 0 0 -3.2 20.318 172.37 172.37 0 0 0 -0.138 20.732 83.09 83.09 0 0 0 1.254 11.688 0.924 0.924 0 0 0 1.8 -0.278 201.962 201.962 0 0 1 0.974 -52.18c0.146 -0.558 -0.69 -0.696 -0.69 -0.28Z" fill="#031d40" stroke-width="1"></path><path d="M188.768 213.666a14.052 14.052 0 0 1 4.962 10.38c0.082 1.084 0.038 5.084 0.882 3.676a9.736 9.736 0 0 0 0.278 -8.35 13.152 13.152 0 0 0 -5.286 -6.68c-0.696 -0.556 -1.39 0.556 -0.836 0.974Z" fill="#031d40" stroke-width="1"></path><path d="M181.81 214.64a16.694 16.694 0 0 1 6.4 11 13.734 13.734 0 0 0 0.556 4.174 0.486 0.486 0 0 0 0.696 0.14 5.532 5.532 0 0 0 0.696 -4.454 15.786 15.786 0 0 0 -7.514 -11.966 0.696 0.696 0 1 0 -0.834 1.106Z" fill="#031d40" stroke-width="1"></path><path d="M174.714 222.572c-0.14 -1.948 2.922 -2.086 4.036 -1.112a5.052 5.052 0 0 1 1.112 3.754c-0.346 3.812 -4.826 14.502 0.418 22.684 1.53 2.226 4.036 4.87 6.958 4.87 0.696 0 0.834 -0.834 0.278 -1.252 -2.754 -1.722 -4.45 -2.362 -6.122 -5.706a17.38 17.38 0 0 1 -1.67 -9.88 40.44 40.44 0 0 1 0.974 -5.704 29.748 29.748 0 0 0 0.834 -4.87c0.458 -8.222 -8.388 -6.95 -7.652 -2.784 0 0.696 0.834 0.556 0.834 0Z" fill="#031d40" stroke-width="1"></path><path d="M140.344 243.584a25.844 25.844 0 0 0 0.696 8.766 6.48 6.48 0 0 0 0.834 2.784 0.912 0.912 0 0 0 1.67 -0.418 5.906 5.906 0 0 0 -0.278 -1.532 73.092 73.092 0 0 1 -1.8 -9.6c-0.148 -0.418 -1.122 -0.556 -1.122 0Z" fill="#031d40" stroke-width="1"></path><path d="M143.4 260.142a82.628 82.628 0 0 0 2.364 9.464c0.538 2.148 0.704 2.65 1.114 3.06 1.034 0.776 1.966 -0.386 1.114 -2.086a68.276 68.276 0 0 0 -3.758 -10.854c-0.132 -0.558 -0.968 0 -0.834 0.416Z" fill="#031d40" stroke-width="1"></path><path d="M148.832 278.372a38.474 38.474 0 0 0 1.67 5.844 48.73 48.73 0 0 0 2.098 5.844c0.416 0.976 1.948 0.28 1.8 -0.696a16.342 16.342 0 0 0 -0.974 -2.784c-0.324 -0.758 -1.782 -4.814 -2.226 -5.704 -0.418 -0.972 -0.836 -1.81 -1.252 -2.784 -0.42 -0.692 -1.264 -0.274 -1.116 0.28Z" fill="#031d40" stroke-width="1"></path><path d="M155.512 296.182a53.256 53.256 0 0 0 2.226 6.262c0.836 2.086 1.67 4.174 2.644 6.122 0.556 0.976 2.226 0.28 1.8 -0.696 -0.694 -2.086 -1.8 -3.894 -2.642 -6.122a32.726 32.726 0 0 0 -3.062 -5.984c-0.278 -0.564 -1.244 -0.138 -0.966 0.418Z" fill="#031d40" stroke-width="1"></path><path d="M171.514 324.848q-0.834 -1.254 -1.67 -2.504a57.2 57.2 0 0 1 -2.922 -5.15c-0.418 -0.836 -0.974 -1.8 -1.4 -2.644 -0.278 -0.696 -1.4 -0.14 -1.112 0.418a23.832 23.832 0 0 0 0.974 2.922 34.016 34.016 0 0 0 4.87 8.21 89.6 89.6 0 0 1 -9.88 4.87c-1.114 0.418 -0.278 2.366 0.834 1.8a46.266 46.266 0 0 0 10.716 -5.984c0.798 -0.502 -0.362 -1.842 -0.41 -1.938Z" fill="#031d40" stroke-width="1"></path><path d="M164.556 342.52c-1.8 0.972 -3.478 1.946 -5.288 2.782 -1.8 0.974 -3.618 1.67 -5.426 2.506 -0.974 0.418 -0.278 2.366 0.834 1.8a46.364 46.364 0 0 0 10.716 -5.982c0.696 -0.41 0.008 -1.662 -0.836 -1.106Z" fill="#031d40" stroke-width="1"></path><path d="M154.4 333.614c-9.418 4.036 -10.344 3.184 -11.828 4.174a0.896 0.896 0 0 0 0.418 1.67 37.614 37.614 0 0 0 11.828 -4.6c0.554 -0.548 0.136 -1.522 -0.418 -1.244Z" fill="#031d40" stroke-width="1"></path><path d="M133.944 339.736a45.726 45.726 0 0 1 -10.02 2.784 1 1 0 0 0 -0.696 1.25c0.14 0.558 0.696 0.696 1.254 0.696a27.676 27.676 0 0 0 10.018 -3.478c0.7 -0.278 0.272 -1.55 -0.556 -1.252Z" fill="#031d40" stroke-width="1"></path><path d="M113.072 345.162a107.14 107.14 0 0 0 -11.132 2.238c-1.114 0.278 -0.696 1.948 0.416 1.8a97.132 97.132 0 0 0 11 -2.644 0.71 0.71 0 0 0 -0.284 -1.394Z" fill="#031d40" stroke-width="1"></path><path d="M95.956 349.058c-1.81 -0.694 -4.732 0.142 -6.54 0.42 -0.974 0.138 -0.836 1.946 0.278 1.8a47 47 0 0 0 6.4 -0.836c1.106 -0.13 0.418 -1.104 -0.138 -1.384Z" fill="#031d40" stroke-width="1"></path><path d="M141.04 236.488c-0.062 -0.616 -1.532 -12.276 -1.532 -14.332a5.078 5.078 0 0 0 -0.278 -2.088 0.894 0.894 0 0 0 -1.67 0 5.318 5.318 0 0 0 0 2.088c0 1.09 0.538 6.06 0.558 6.26 0.416 2.784 0.834 5.428 1.53 8.21 0.418 0.696 1.53 0.558 1.392 -0.138Z" fill="#031d40" stroke-width="1"></path><path d="M137.282 215.616a40.268 40.268 0 0 0 -12.94 1.112 3.56 3.56 0 0 0 -1.67 0.696 0.894 0.894 0 0 0 0.14 1.252 8 8 0 0 0 3.618 -0.278 66.4 66.4 0 0 1 10.852 -0.974c0.976 -0.424 0.976 -1.808 0 -1.808Z" fill="#031d40" stroke-width="1"></path><path d="M117.384 217.562a35.872 35.872 0 0 0 -10.158 0.696 13.066 13.066 0 0 0 -3.34 0.836 0.86 0.86 0 1 0 0.418 1.67c2.286 -0.288 3.144 -0.83 6.54 -1.254 2.226 -0.278 4.452 -0.556 6.54 -0.696 0.836 -0.138 0.836 -1.252 0 -1.252Z" fill="#031d40" stroke-width="1"></path><path d="M96.512 220.068a41.416 41.416 0 0 0 -9.88 1.8 15.6 15.6 0 0 0 -3.34 1.112c-0.974 0.556 -0.278 1.8 0.696 1.67a11.322 11.322 0 0 0 3.062 -0.974c0.378 -0.096 9.224 -2.4 9.6 -2.504a0.562 0.562 0 0 0 -0.138 -1.104Z" fill="#031d40" stroke-width="1"></path><path d="M74.944 224.8c-2.342 0.468 -8.894 2.282 -9.184 2.366 -0.836 0.278 -2.226 0.418 -2.784 1.254 -0.138 0.276 -0.138 0.834 0.278 0.972 0.946 0.474 1.812 -0.17 6.124 -1.252 2.086 -0.556 4.034 -1.252 5.982 -1.948 0.696 -0.42 0.418 -1.672 -0.416 -1.392Z" fill="#031d40" stroke-width="1"></path><path d="M57.69 229.112c-2.828 0.566 -6.732 1.588 -9.464 2.366 -0.974 0.278 -2.364 0.418 -2.922 1.252a0.874 0.874 0 0 0 0.278 1.112c0.976 0.558 2.228 -0.138 3.2 -0.416s2.086 -0.558 3.06 -0.834l6.262 -2.088c0.838 -0.418 0.42 -1.67 -0.414 -1.392Z" fill="#031d40" stroke-width="1"></path><path d="M40.018 234.956a51.49 51.49 0 0 0 2.086 12.384 7.466 7.466 0 0 0 1.532 3.758c0.416 0.28 0.974 0.28 1.112 -0.278a7.892 7.892 0 0 0 -0.834 -3.896c-1.446 -4.816 -2.252 -8.922 -2.922 -12.108 0.008 -0.694 -0.974 -0.556 -0.974 0.14Z" fill="#031d40" stroke-width="1"></path><path d="M46.28 258.472a25.4 25.4 0 0 0 0.974 6.124 42.756 42.756 0 0 0 1.948 5.982 0.928 0.928 0 0 0 1.8 -0.416l-2.088 -5.844c-1.578 -5.524 -1.464 -4.6 -1.8 -5.984a0.426 0.426 0 0 0 -0.834 0.138Z" fill="#031d40" stroke-width="1"></path><path d="M52.262 276.84a28.846 28.846 0 0 0 1.4 5.984c0.418 0.974 0.696 1.948 1.114 2.922 0.138 0.418 0.416 0.974 0.556 1.4 0.87 1.75 2.2 1.634 1.702 -0.548 -0.088 -0.388 -3.76 -9.446 -4.068 -10.164 -0.008 -0.434 -0.704 -0.15 -0.704 0.406Z" fill="#031d40" stroke-width="1"></path><path d="M58.246 293.4a36.154 36.154 0 0 0 3.618 11.97c0.556 1.112 0.974 2.642 2.226 3.06 0.278 0.138 0.556 -0.14 0.696 -0.418 0.278 -1.252 -0.558 -2.364 -1.114 -3.48a75.71 75.71 0 0 1 -4.314 -11.4c-0.278 -0.288 -1.112 -0.288 -1.112 0.268Z" fill="#031d40" stroke-width="1"></path><path d="M67.29 315.524a18.83 18.83 0 0 0 0.696 4.036 32.242 32.242 0 0 0 2.644 7.096 6.328 6.328 0 0 0 2.366 3.062c0.278 0.138 0.556 0 0.556 -0.278a6.422 6.422 0 0 0 -1.114 -3.48 46.32 46.32 0 0 1 -2.782 -7.096 36.95 36.95 0 0 1 -1.252 -3.618c-0.278 -0.696 -1.114 -0.418 -1.114 0.278Z" fill="#031d40" stroke-width="1"></path><path d="M75.082 336.4a43.6 43.6 0 0 0 3.2 8.628 59.304 59.304 0 0 0 4.312 8.35 0.908 0.908 0 1 0 1.532 -0.974c-0.1 -0.2 -3.228 -6.038 -4.314 -8.2 -0.696 -1.4 -1.252 -2.784 -1.948 -4.036 -0.696 -1.4 -1.53 -2.784 -2.088 -4.174 0.002 -0.292 -0.832 -0.014 -0.694 0.406Z" fill="#031d40" stroke-width="1"></path><path d="M146.744 351.842c-3.762 1.516 -8.2 2.228 -11.826 4.036a0.896 0.896 0 0 0 0.416 1.67c3.896 -0.14 8.488 -2.782 11.828 -4.6 0.696 -0.27 0.278 -1.386 -0.418 -1.106Z" fill="#031d40" stroke-width="1"></path><path d="M126.428 358.104a40.626 40.626 0 0 1 -10.018 2.782 1 1 0 0 0 -0.696 1.252c0.14 0.558 0.696 0.696 1.252 0.696a27.724 27.724 0 0 0 10.02 -3.478c0.556 -0.416 0.14 -1.528 -0.558 -1.252Z" fill="#031d40" stroke-width="1"></path><path d="M105.556 363.53a107.246 107.246 0 0 0 -11.132 2.228c-1.112 0.278 -0.696 1.948 0.418 1.8a97.2 97.2 0 0 0 11 -2.644 0.71 0.71 0 0 0 -0.286 -1.384Z" fill="#031d40" stroke-width="1"></path><path d="M87.93 367.178c-0.136 0 -5.4 0.524 -6.028 0.666 -0.974 0.14 -0.836 1.95 0.278 1.81a47.314 47.314 0 0 0 6.4 -0.836c0.82 -0.164 0.55 -1.544 -0.65 -1.64Z" fill="#031d40" stroke-width="1"></path><path d="M32.364 253.186a51.388 51.388 0 0 0 2.088 12.382 7.448 7.448 0 0 0 1.53 3.758c0.418 0.28 0.974 0.28 1.114 -0.278a7.9 7.9 0 0 0 -0.836 -3.896c-1.448 -4.828 -2.252 -8.928 -2.922 -12.108 0.14 -0.554 -0.974 -0.416 -0.974 0.142Z" fill="#031d40" stroke-width="1"></path><path d="M38.764 276.84a25.366 25.366 0 0 0 0.974 6.122 43.228 43.228 0 0 0 1.948 5.984 0.928 0.928 0 1 0 1.81 -0.418l-2.096 -5.842c-1.6 -5.612 -1.46 -4.588 -1.8 -5.986a0.428 0.428 0 0 0 -0.836 0.14Z" fill="#031d40" stroke-width="1"></path><path d="M44.748 295.07a28.728 28.728 0 0 0 1.4 5.982c0.418 0.974 0.696 1.948 1.114 2.922 0.138 0.418 0.416 0.976 0.556 1.4 0.778 1.564 1.8 1.4 1.8 0.556 0 -1.682 -0.552 -1.932 -0.834 -3.06 -0.418 -0.836 -0.696 -1.81 -1.114 -2.644 -0.368 -1.294 -1.732 -4.414 -2.226 -5.566 0 -0.286 -0.834 -0.146 -0.696 0.41Z" fill="#031d40" stroke-width="1"></path><path d="M50.732 311.766a36.156 36.156 0 0 0 3.618 11.97c0.556 1.112 0.974 2.642 2.226 3.06 0.278 0.138 0.556 -0.14 0.696 -0.418 0.278 -1.252 -0.558 -2.366 -1.114 -3.48a75.746 75.746 0 0 1 -4.314 -11.41c-0.278 -0.416 -1.244 -0.416 -1.112 0.278Z" fill="#031d40" stroke-width="1"></path><path d="M59.776 333.752a18.83 18.83 0 0 0 0.696 4.036 32.242 32.242 0 0 0 2.644 7.096 6.34 6.34 0 0 0 2.366 3.062c0.278 0.14 0.556 0 0.556 -0.278a6.432 6.432 0 0 0 -1.114 -3.48 46.272 46.272 0 0 1 -2.782 -7.096 37.1 37.1 0 0 1 -1.252 -3.616 0.58 0.58 0 0 0 -1.114 0.276Z" fill="#031d40" stroke-width="1"></path><path d="M67.568 354.764a44.08 44.08 0 0 0 3.2 8.628 59.304 59.304 0 0 0 4.312 8.35 0.908 0.908 0 1 0 1.532 -0.974c-0.1 -0.2 -3.228 -6.038 -4.314 -8.2 -0.696 -1.4 -1.252 -2.784 -1.948 -4.036 -0.696 -1.4 -1.53 -2.784 -2.088 -4.174 -0.136 -0.43 -0.838 -0.148 -0.694 0.406Z" fill="#031d40" stroke-width="1"></path><path d="M383.856 168.722c-8.544 -6.542 -21.984 -0.158 -22.82 11.966 -0.14 2.226 0.278 7.376 3.478 6.958 3.062 -0.278 2.088 -4.6 2.504 -6.68 2.03 -9.74 12.318 -11.706 15.724 -3.756a10.492 10.492 0 0 1 -5.844 14.2c-2.086 0.836 -4.73 0.418 -6.678 1.4a8.512 8.512 0 0 0 -3.758 4.732c-1.112 2.922 -1.948 6.122 -2.782 9.184a3.368 3.368 0 0 0 2.364 4.174 3.484 3.484 0 0 0 4.176 -2.366c0.974 -3.062 2.922 -9.6 2.922 -9.74 13.748 -2.6 18.468 -12.074 16.42 -21.152a16.304 16.304 0 0 0 -5.706 -8.92Z" fill="#10b981" stroke-width="1"></path><path d="M363.958 223a3.74 3.74 0 0 0 3.756 -3.758 3.83 3.83 0 0 0 -3.756 -3.756 3.742 3.742 0 0 0 -3.758 3.756 3.834 3.834 0 0 0 3.758 3.758Z" fill="#10b981" stroke-width="1"></path><path d="M82.458 251.376c4.6 -0.694 9.044 -1.81 13.498 -2.506 2.226 -0.416 11.27 -1.528 13.636 -1.946 0.974 -0.14 0.836 -1.8 -0.278 -1.8A165.056 165.056 0 0 0 82.04 250.4c-0.556 0.14 -0.278 0.976 0.418 0.976Z" fill="#10b981" stroke-width="1"></path><path d="M76.334 274.476a47.51 47.51 0 0 0 9.88 -1.81c12.692 -3.172 35.75 -7.718 41.884 -8.628 1.114 -0.278 0.696 -1.948 -0.556 -1.8 -6.876 1.262 -45.38 8.706 -51.346 11.688a0.3 0.3 0 0 0 0.138 0.55Z" fill="#10b981" stroke-width="1"></path><path d="M79.952 286.164c2.982 -0.374 2.8 -0.56 20.038 -4.87 6.68 -1.67 13.498 -3.062 20.316 -4.174 1.948 -0.278 3.758 -0.696 5.706 -0.974a45.042 45.042 0 0 0 5.988 -0.974 0.856 0.856 0 0 0 -0.28 -1.672 32.702 32.702 0 0 0 -5.148 0.696 318.728 318.728 0 0 0 -35.772 7.654 50.832 50.832 0 0 0 -11 3.618c-0.4 0.132 -0.264 0.836 0.152 0.696Z" fill="#10b981" stroke-width="1"></path><path d="M84.4 298.13c8.168 -1.36 12.226 -3.536 39.38 -8.626 1.948 -0.278 3.756 -0.696 5.704 -0.974 3.976 -0.664 4.524 -0.512 5.428 -1.114a0.8 0.8 0 0 0 -0.14 -1.4 3.564 3.564 0 0 0 -2.086 0 374.064 374.064 0 0 0 -37.432 7.514 75.89 75.89 0 0 0 -11 3.48c-0.682 0.424 -0.404 1.26 0.146 1.12Z" fill="#10b981" stroke-width="1"></path><path d="M108.478 309.68c2.088 -0.14 11.69 -1.53 12.246 -1.81s0.556 -1.39 -0.14 -1.528a105.294 105.294 0 0 0 -12.244 2.224 0.562 0.562 0 0 0 0.138 1.114Z" fill="#10b981" stroke-width="1"></path><path d="M111.68 319c0.974 0 9.322 -1.532 11.132 -1.95 0.876 -0.292 0.834 -2.016 -0.558 -1.668a73.822 73.822 0 0 0 -11 2.504c-0.41 0.282 -0.132 1.114 0.426 1.114Z" fill="#10b981" stroke-width="1"></path><path d="M305.098 245.4c-2.752 4.28 -7.698 3.292 -11.272 -0.276a10.306 10.306 0 0 1 -3.06 -6.262 10.762 10.762 0 0 1 -0.022 -2.108 8.79 8.79 0 0 1 6.56 1 0.914 0.914 0 0 0 1.114 -1.4 6.2 6.2 0 0 0 -3.618 -1.532 10.084 10.084 0 0 0 -3.758 0.558 34.752 34.752 0 0 1 2.784 -9.322 18.668 18.668 0 0 0 0.974 -2.504 0.88 0.88 0 0 0 -0.416 -1.116c-1.684 -0.754 -2.52 -1.09 -2.952 -1.32 4.298 -6.98 9.224 -10.6 11.3 -16.074 0.278 -0.554 -0.696 -0.834 -0.974 -0.416 -2.922 3.896 -6.212 7.584 -9.184 11.548 -1.31 1.748 -2.14 2.86 -2.622 3.636 -1.126 1.814 -0.442 2.17 1.09 3.322l1.672 0.836c-0.774 1.538 -1.032 2.426 -1.948 4.6a23.098 23.098 0 0 0 -1.67 11.27 12.482 12.482 0 0 0 11.478 10.576 15.89 15.89 0 0 1 -0.25 9.888c-0.462 1.946 0.156 2.72 1.628 0.306a8.166 8.166 0 0 0 1.336 -4.49 20.82 20.82 0 0 0 -0.974 -5.844 8.162 8.162 0 0 0 5 -3.618c0.286 -1.258 -1.382 -2.378 -2.216 -1.258Z" fill="#031d40" stroke-width="1"></path><path d="M341.136 212.692a10.36 10.36 0 0 0 -4.034 -11.966 48.522 48.522 0 0 0 -13.636 -5.566c-4.6 -1.254 -9.74 -1.8 -13.498 -4.732a15.122 15.122 0 0 1 -5 -7.096 0.966 0.966 0 0 0 -1.81 0 35.8 35.8 0 0 0 -1.4 10.158 20.848 20.848 0 0 0 -3.2 -2.922 1.014 1.014 0 0 0 -1.39 0.556 9.968 9.968 0 0 0 2.782 8.348c5.532 6.224 16.308 4.436 17.674 12.386 0.974 5.286 -1.672 10.436 -4.036 14.89a0.8 0.8 0 0 0 1.252 0.974 8.27 8.27 0 0 1 5.982 -2.924c4.176 0.558 2.506 5.844 1.114 8.212 -2.782 4.312 -7.654 4.73 -10.574 0.138a0.846 0.846 0 0 0 -1.532 0.694 7.164 7.164 0 0 0 8.628 4.6 25.6 25.6 0 0 0 4.454 3.454c-2.418 2.776 -6.82 11.714 -3.2 14.36 0.136 0.138 0.416 0 0.554 -0.142 0.696 -0.974 0.278 -2.364 0.278 -3.478 -0.138 -2.92 3.48 -9.044 4.038 -9.74a21.908 21.908 0 0 0 8.348 2.228c0.834 0 1.112 -0.974 0.696 -1.67a7.112 7.112 0 0 1 -0.28 -8.766c2.146 -2.634 14.478 -11.596 7.79 -21.996Z" fill="#031d40" stroke-width="1"></path><path d="M302.174 212.554c-1.158 1.494 0.13 2.832 1.532 2.366a2.6 2.6 0 0 0 1.4 -1.95 1.246 1.246 0 0 0 -1.112 -1.39 2.416 2.416 0 0 0 -1.82 0.974Z" fill="#031d40" stroke-width="1"></path><path d="M305.8 206.85a2.422 2.422 0 0 0 -1.95 0.694 1.05 1.05 0 0 0 0.836 1.53c0.974 0 1.948 -0.416 2.366 0.836 0.14 0.418 0 1.4 0.418 1.532 0.314 0.102 0.732 -0.636 0.916 -1.328a2.8 2.8 0 0 0 -2.586 -3.264Z" fill="#031d40" stroke-width="1"></path><path d="M354.914 281.154c-1.116 -7.654 -4.454 -15.306 -11.55 -19.2 -8.952 -4.884 -14.2 -0.784 -18.228 1.254 0.556 -1.672 1.39 -6.124 0.974 -6.124 -15.566 1.782 -26.544 5.568 -28.944 6.956a33.056 33.056 0 0 0 -12.8 1.4c-14.054 4.036 -23.376 14.61 -33.256 24.63a154.914 154.914 0 0 1 -26.44 21.848c-0.416 0.276 -17.672 -54.964 -18.784 -57.888 -2.922 -8.2 -19.898 -0.278 -24.074 2.782 -0.556 0.418 0.14 24.908 1.67 36.6a206.824 206.824 0 0 0 8.21 35.344c3.896 11.4 9.184 25.324 23.656 24.35 6.262 -0.416 12.8 -2.92 18.646 -5.148 33.058 -12.772 53.026 -37.784 60.67 -44.25 0.138 -0.138 0.556 0 0.416 0.278a40.556 40.556 0 0 1 -7.236 8.906c0.28 -0.276 7.8 -2.504 6.262 -1.252 -1.252 1.114 -8.07 3.062 -8.348 3.34a187.646 187.646 0 0 1 -30.334 24.77 149.936 149.936 0 0 1 -4.036 19.062 0.672 0.672 0 0 0 0.418 0.834c18.506 7.238 39.1 7.238 58.302 3.064 8.906 -1.95 28.666 -7.654 28.8 -7.8 4.496 -21.568 8.722 -44.462 10.02 -66.376a0.35 0.35 0 0 1 0.696 0 217.746 217.746 0 0 1 -2.784 34.512c0.278 -0.28 0.418 -0.696 0.696 -0.976 8.064 -11.554 9.322 -27.556 7.378 -40.916Z" fill="#10b981" stroke-width="1"></path></svg>