<svg viewBox="0 0 400 400" xmlns="http://www.w3.org/2000/svg" height="400" width="400" id="Search-User-2--Streamline-Brooklyn.svg"><desc>Search User 2 Streamline Illustration: https://streamlinehq.com</desc><path d="M145.464 80c-3.4 0.628 -3.19 2.978 -0.212 3.4 1.702 0.212 4.68 0.85 6.6 1.064 3.4 0.426 5.318 -1.702 2.34 -3.616A17.016 17.016 0 0 0 145.464 80Z" fill="#031d40" stroke-width="1"></path><path d="M163.122 102.968c8.73 0.55 9.148 -1.914 8.084 -8.296 -0.638 -4.468 -2.55 -13.19 -4.678 -17.02 -0.854 -1.702 -3.2 -0.424 -2.768 1.064a161.052 161.052 0 0 1 3.616 19.786c-9.998 0.638 -8.292 4.212 -4.254 4.466Z" fill="#031d40" stroke-width="1"></path><path d="M172.91 84.886c2.334 1.286 4.466 -0.638 4.04 -4.894 -0.426 -4.892 -2.978 -4.892 -4.466 -2.978 -1.284 1.702 -1.484 6.816 0.426 7.872Z" fill="#031d40" stroke-width="1"></path><path d="M123.338 115.094c-0.422 -4.042 -1.276 -6.8 -4.04 -4.892 -8.298 5.53 -15.106 -11.914 -9.362 -19.572a6.98 6.98 0 0 1 8.298 -2.34c1.7 0.638 2.554 -1.49 1.49 -2.554 -6.172 -5.318 -20.85 1.914 -14.468 20.424 2.342 6.6 8.296 11.274 14.254 8.722a86.428 86.428 0 0 0 1.916 10.212c0.636 2.126 2.976 2.126 2.554 -1.916Z" fill="#031d40" stroke-width="1"></path><path d="M173.122 128.498c-1.082 1.476 -1.916 7.658 -8.724 11.276 -5.318 2.978 -8.508 2.766 -14.252 1.914 -1.49 -0.212 -2.766 2.128 0.424 3.4a20.78 20.78 0 0 0 15.53 -1.702c6.6 -3.83 10.426 -11.276 9.574 -14.68 -0.212 -1.058 -1.924 -1.066 -2.552 -0.208Z" fill="#031d40" stroke-width="1"></path><path d="M179.93 71.908a156.112 156.112 0 0 1 -1.702 37.018c-0.214 1.488 2.34 1.914 2.766 0.638 3.19 -8.084 3.616 -29.572 1.702 -38.294 -0.426 -1.702 -2.982 -0.85 -2.766 0.638Z" fill="#031d40" stroke-width="1"></path><path d="M211.84 197.852c-4.034 -2.988 -4.468 -3.2 -8.724 0.424a69.24 69.24 0 0 0 -8.932 8.724c-1.704 2.126 0.212 4.254 2.126 2.34a80.56 80.56 0 0 1 11.488 -9.574c12.766 10.212 19.572 19.574 24.466 29.784 -2.128 4.892 -4.468 8.296 -10.424 14.466 -1.49 1.702 -0.64 4.256 2.128 2.34a40.692 40.692 0 0 0 10.21 -11.914c2.34 -4.042 2.128 -5.106 0.85 -8.72 -3.828 -9.788 -14.028 -21.086 -23.188 -27.87Z" fill="#031d40" stroke-width="1"></path><path d="M170.142 152.75c-2.972 -0.66 -8.51 6.17 -26.168 1.916 -1.702 -0.426 -2.338 2.126 -0.848 2.764A23.26 23.26 0 0 0 154.4 160.2a70.076 70.076 0 0 0 -7.236 15.53c-0.638 1.916 1.916 3.2 2.766 1.278a71.2 71.2 0 0 1 7.446 -14.468c2.126 2.128 7.022 10.212 9.15 11.064a1.654 1.654 0 0 0 2.338 -1.49c-0.212 -2.128 -6.8 -9.786 -8.72 -12.34 12.766 -1.706 12.77 -6.406 9.998 -7.024Z" fill="#031d40" stroke-width="1"></path><path d="M215.458 194.234c1.702 -11.7 4.678 -28.932 20.634 -34.038 1.704 -0.638 1.704 -2.766 -0.424 -2.554 -17.66 2.128 -22.126 23.4 -22.978 36.38 -0.21 1.702 2.342 1.702 2.768 0.212Z" fill="#031d40" stroke-width="1"></path><path d="M260.772 200.2c-2.342 11.702 -13.19 17.444 -21.7 19.36 -3.83 0.852 -3.4 3.616 0.426 3.4 10.636 -0.85 22.338 -7.656 24.04 -22.338 0.21 -2.982 -2.554 -1.918 -2.766 -0.422Z" fill="#031d40" stroke-width="1"></path><path d="M247.156 173.174c-4.656 2.6 -9.148 1.276 -13.614 1.702 -1.278 0.212 -1.918 2.34 -0.428 2.766 5.746 1.702 12.764 1.276 17.232 -2.128a9.428 9.428 0 0 0 2.128 -12.978c-0.85 -1.488 -2.976 -0.85 -2.128 1.702 1.278 3.404 1.304 6.426 -3.19 8.936Z" fill="#031d40" stroke-width="1"></path><path d="M250.346 191.256c6.552 -2.468 11.488 -11.274 9.574 -17.444a1.31 1.31 0 0 0 -2.554 0.212c-1.062 5.958 -1.914 9.572 -8.722 13.826a1.92 1.92 0 0 0 1.702 3.406Z" fill="#031d40" stroke-width="1"></path><path d="M260.558 185.938c-1.844 6.986 -3.2 8.936 -8.296 12.34 -1.064 0.638 -0.852 2.978 2.338 2.338 3.83 -0.85 9.148 -7.446 8.726 -14.678 0 -1.488 -2.374 -1.498 -2.768 0Z" fill="#031d40" stroke-width="1"></path><path d="M350.55 185.938a128.58 128.58 0 0 0 -19.148 -9.36 129.43 129.43 0 0 0 -20 -6.6 2.024 2.024 0 0 0 -2.128 1.278c-1.49 3.19 -2.98 6.382 -4.254 9.572 -0.854 2.128 1.49 3.828 2.554 1.916 1.488 -2.554 3.19 -5.744 4.464 -8.298 10.232 3.654 15.676 4.336 34.892 14.68q-1.918 6.702 -3.828 13.4a1.782 1.782 0 0 0 3.4 1.064c1.49 -4.894 3.4 -9.786 4.892 -14.682a2.048 2.048 0 0 0 -0.844 -2.97Z" fill="#031d40" stroke-width="1"></path><path d="M357.144 151.048a9.944 9.944 0 0 0 2.978 -4.256c0.85 -2.34 -1.276 -3.828 -2.34 -1.914 -0.852 1.49 -2.34 3.616 -3.2 4.894 -1.48 1.914 0.842 2.744 2.562 1.276Z" fill="#031d40" stroke-width="1"></path><path d="M368.844 132.326a38.498 38.498 0 0 0 6.6 -20.422c0 -2.978 -2.128 -3.4 -2.766 -0.852a70.966 70.966 0 0 1 -7.02 20.85c-0.644 1.276 0.838 3.184 3.186 0.424Z" fill="#031d40" stroke-width="1"></path><path d="M345.868 144.24c-1.496 3.614 -4.892 4.042 -3.4 5.958 1.918 2.978 7.662 -4.042 7.236 -6.17 -0.432 -1.702 -2.778 -2.342 -3.836 0.212Z" fill="#031d40" stroke-width="1"></path><path d="M325.658 147.432a1.4 1.4 0 0 0 -0.214 2.766c6.382 2.126 14.68 -3.2 11.914 -5.532 -2.558 -2.128 -2.97 2.978 -11.7 2.766Z" fill="#031d40" stroke-width="1"></path><path d="M320.978 129.562C306.56 140.2 304.6 161.048 313.956 167c1.278 0.852 2.766 -0.85 2.128 -1.914 -5.532 -8.722 -4.892 -20.636 6.8 -33.4 1.072 -1.06 -0.434 -3.21 -1.906 -2.124Z" fill="#031d40" stroke-width="1"></path><path d="M380.758 126.37A79.364 79.364 0 0 1 368 151.9c-7.23 9.148 -5.104 10.424 -10.212 19.146a83.676 83.676 0 0 1 -7.87 10.212c-1.488 2.338 0.424 3.616 2.768 2.128a36.322 36.322 0 0 0 8.294 -10.212c5.108 -10.212 3.83 -10.424 11.062 -20A56.326 56.326 0 0 0 383.1 130.2c1.062 -5.956 -1.722 -5.75 -2.342 -3.83Z" fill="#031d40" stroke-width="1"></path><path d="M164.612 105.948c-12.978 -0.108 -21.062 12.338 -23.614 19.146 11.488 1.914 22.338 -2.978 23.614 -9.574 0.85 7.446 11.914 10.638 18.934 8.298 -1.276 -3.618 -5.946 -17.764 -18.934 -17.87Z" fill="#031d40" stroke-width="1"></path><path d="M337.57 87.65c7.234 -9.572 -1.702 -22.762 -11.912 -20.848 -9.574 1.702 -14.892 10.638 -11.488 18.508a13.624 13.624 0 0 0 23.4 2.34Z" fill="#031d40" stroke-width="1"></path><path d="M349.91 121.052c-1.278 -10.638 -9.786 -21.912 -23.188 -21.912a22.774 22.774 0 0 0 -22.976 22.55c7.654 1.064 30.854 0.638 46.164 -0.638Z" fill="#031d40" stroke-width="1"></path><path d="M239.708 137.434c0 8.508 1.28 27.868 1.702 30.846s5.106 3.2 5.32 0a286.618 286.618 0 0 0 -0.85 -31.91c14.892 -5.744 15.956 -30.848 15.528 -41.91 -0.85 -15.532 -6.168 -32.126 -20.636 -32.764 -19.57 -0.85 -21.484 27.658 -20 41.486 1.068 10.85 5.746 33.4 18.936 34.252Zm-13.19 -45.316c0.19 -8.084 3.832 -25.742 14.892 -24.252 12.342 1.702 14.892 27.232 13.83 36.8 -0.64 7.446 -3.83 23.828 -12.126 25.742 -14.042 2.982 -16.84 -27.866 -16.596 -38.29Z" fill="#031d40" stroke-width="1"></path><path d="M172.484 42.55c-19.786 0.85 -55.314 10.636 -64.462 14.466a79.076 79.076 0 0 1 -4.254 17.658c21.062 -7.66 57.864 -14.042 78.074 -15.956 -4.254 -3.83 -6.592 -10.85 -9.358 -16.168Z" fill="#031d40" stroke-width="1"></path><path d="M62.708 94.034a675.614 675.614 0 0 1 72.756 -18.296 764.096 764.096 0 0 1 89.136 -11.914c1.7 -0.212 2.338 -3.2 0.21 -3.4 -24.476 -2.134 -123.552 12.776 -163.166 30.63 -1.914 0.64 -2.328 4.08 1.064 2.98Z" fill="#10b981" stroke-width="1"></path><path d="m294.6 141.688 9.788 -0.426c6.6 0 5.744 -3.616 0.212 -3.83a99.766 99.766 0 0 0 -11.276 0.426c-0.426 -31.486 -0.852 -59.356 0.428 -90.842 0.21 -3.19 -3.2 -2.764 -3.4 -0.424 -1.702 22.762 -2.34 65.524 -0.424 90 0.628 4.244 0.414 4.882 4.672 5.096Z" fill="#10b981" stroke-width="1"></path><path d="M365.228 49.358c-0.056 -7.234 -0.214 -6.382 -6.8 -6.382 -13.188 -0.214 -54.674 1.062 -60 1.488 -1.916 0.214 -2.98 3.2 0 2.978 20.2 -0.85 45.526 0.214 62.97 -0.424 0 25.102 -0.21 64.886 -1.064 89.352 -7.872 0.212 -28.93 0.424 -34.89 1.276a1.616 1.616 0 0 0 0 3.2c2.128 0.214 25.106 0.214 34.252 -0.212 5.318 -0.212 4.682 -0.852 4.682 -5.956 0 -26.604 1.062 -57.878 0.85 -85.32Z" fill="#10b981" stroke-width="1"></path><path d="M150.146 10c-9.148 -0.076 -7.872 11.062 -13.19 12.126s-11.49 -9.148 -20.212 -7.232 -8.298 27.656 -8.934 39.144c20 -9.148 50.42 -13.828 63.6 -14.68C168.654 34.252 162.912 10.106 150.146 10Z" fill="#10b981" stroke-width="1"></path><path d="M207.8 185.3a38.224 38.224 0 0 1 7.234 -15.742c-6.384 -3.62 -10.85 -6.17 -14.254 -8.084 -5.32 7.656 -9.784 15.956 -14.468 24.04 4.888 0.636 14.688 0 21.488 -0.214Z" fill="#10b981" stroke-width="1"></path><path d="M217.8 133.39c-7.66 -6.382 -22.552 -11.488 -29.572 -12.976 -4.042 8.934 -27.232 87.224 -31.06 107.86 28.932 -16.6 41.698 -31.912 47.442 -38.294 -5.106 0 -17.446 0.212 -20.636 -0.212 -0.426 0 -2.342 -1.49 -1.702 -2.766 5.316 -13.828 23.612 -44.038 35.528 -53.612Z" fill="#10b981" stroke-width="1"></path><path d="M255.878 248.698a1.534 1.534 0 0 1 -2.768 -1.28c1.064 -4.04 5.534 -11.91 7.872 -15.74a48.092 48.092 0 0 0 -7.23 -7.872c-2.768 1.49 -8.298 4.042 -12.766 3.83 1.702 3.616 -3.616 17.232 -18.508 26.8 1.064 2.34 3.83 8.51 1.49 10.424 -3.4 2.978 -6.8 5.744 -10.426 8.722l3.2 27.656c16.6 11.914 34.674 17.872 50.2 16.8 20.424 -1.492 82.758 -80.418 90.2 -97.862 -10.426 -10 -43.612 -30.422 -55.74 -34.466 -3.19 4.058 -40.054 53.07 -45.524 62.988Z" fill="#10b981" stroke-width="1"></path><path d="M103.768 113.818c-7.022 0 -24.466 3.19 -28.72 6.6 7.23 3.2 33.4 5.958 42.334 6.8 -0.636 -2.766 -1.276 -5.53 -1.49 -7.232a13.086 13.086 0 0 1 -12.124 -6.168Z" fill="#10b981" stroke-width="1"></path><path d="M153.974 318.688c0.852 23.4 -0.212 47.656 0.426 71.058 30.634 -0.428 56.588 -2.556 69.352 -5.746 -7.446 -32.338 -10 -73.822 -13.19 -107.86a545.924 545.924 0 0 1 -56.588 42.548Zm16.8 3.2c1.692 2.134 2.128 12.126 -3.2 11.7 -9.344 -0.646 -3 -19.548 3.208 -11.708Zm3.19 49.57c-0.6 5.746 -6.8 7.446 -8.934 0.212 -2.334 -8.092 10.068 -10.85 8.942 -0.22Z" fill="#10b981" stroke-width="1"></path><path d="M83.344 343.368c42.758 -2.23 104.668 -53.612 137 -81.268 -11.274 -27.446 -22.974 -40.846 -31.912 -49.144 -25.316 17.658 -63.6 38.718 -93.82 46.6a1.484 1.484 0 0 1 -1.062 -2.766c4.042 -1.702 8.296 -3.2 12.55 -4.894a214.966 214.966 0 0 1 -14.892 -42.548 1.42 1.42 0 1 1 2.766 -0.638c4.894 14.04 10 28.08 16.172 41.698a357.72 357.72 0 0 0 42.972 -20 206.722 206.722 0 0 1 2.126 -42.55 215.928 215.928 0 0 0 -22.76 -2.338c1.274 -9.148 11.91 -45.952 14.464 -53.61 -16.168 1.702 -58.504 -2.554 -72.12 -7.02 15.742 36.6 41.91 71.478 54.036 109.348 0.852 2.766 -1.488 4.042 -2.552 1.702 -14.254 -31.698 -27.444 -56.376 -42.55 -84.458 -14.246 2.546 -36.162 8.29 -49.35 20.202 -38.718 34.678 -5.53 121.052 18.51 157.218 8.078 12.552 18.72 15.076 30.422 14.466Z" fill="#10b981" stroke-width="1"></path><path d="M72.92 347.2c-8.522 -1.634 -14.254 -4.466 -19.146 -10.424a146.288 146.288 0 0 1 -21.274 -33.83c-2.128 25.104 -4.682 64.674 -3.832 77.226 34.892 7.446 81.482 10.212 121.262 9.786 0.642 -22.976 -0.21 -45.952 0.426 -68.928 -19.782 12.126 -54.284 30.606 -77.436 26.17Z" fill="#10b981" stroke-width="1"></path></svg>